<svg width="220" height="215" viewBox="0 0 220 215" fill="none" xmlns="http://www.w3.org/2000/svg">
<path d="M73.6348 134.14L79.1958 133.901C81.7716 133.791 83.8004 134.491 85.2823 136.002C86.7642 137.513 87.5664 139.696 87.6889 142.553C87.8122 145.426 87.2006 147.687 85.8544 149.336C84.5073 150.968 82.5459 151.84 79.9701 151.95L74.4091 152.189L73.6348 134.14ZM79.7426 149.776C83.6584 149.608 85.5181 147.234 85.3216 142.654C85.1265 138.108 83.0711 135.919 79.1553 136.087L76.0286 136.221L76.6159 149.91L79.7426 149.776Z" fill="#07122B"/>
<path d="M75.0996 105.477C75.182 105.421 75.3084 105.389 75.4787 105.38L78.5703 105.215C78.6554 105.21 78.7254 105.24 78.7801 105.306C78.851 105.353 78.8887 105.42 78.8933 105.505L79.8166 122.776C79.8211 122.862 79.7911 122.94 79.7267 123.012C79.6783 123.066 79.6115 123.095 79.5264 123.099L76.537 123.259C76.4519 123.264 76.3738 123.242 76.303 123.195C76.2482 123.129 76.2186 123.054 76.214 122.969L75.4656 108.968C75.4637 108.934 75.4449 108.9 75.409 108.868C75.3731 108.836 75.3386 108.829 75.3054 108.848L72.8129 109.673L72.712 109.704C72.5587 109.712 72.4771 109.623 72.4671 109.435L72.2729 107.242C72.2638 107.072 72.3341 106.949 72.4838 106.872L75.0996 105.477Z" fill="#07122B"/>
<path d="M81.9779 116.947C81.8928 116.952 81.8148 116.93 81.7439 116.883C81.6892 116.817 81.6595 116.742 81.6549 116.657L81.5225 114.178C81.5179 114.093 81.5398 114.024 81.5882 113.97C81.6527 113.898 81.7275 113.86 81.8127 113.855L90.1675 113.409C90.2526 113.404 90.3226 113.435 90.3773 113.5C90.4482 113.548 90.4859 113.614 90.4905 113.699L90.623 116.177C90.6275 116.263 90.5975 116.341 90.533 116.413C90.4847 116.467 90.4179 116.496 90.3327 116.5L81.9779 116.947Z" fill="#07122B"/>
<path d="M97.4855 118.885C97.4533 118.921 97.4466 118.956 97.4654 118.989C97.4843 119.022 97.5192 119.037 97.5703 119.034L104.494 118.664C104.58 118.66 104.649 118.69 104.704 118.756C104.775 118.803 104.813 118.869 104.817 118.955L104.95 121.433C104.954 121.518 104.924 121.596 104.86 121.668C104.812 121.722 104.745 121.751 104.66 121.756L93.1622 122.37C93.077 122.375 92.999 122.354 92.9281 122.306C92.8734 122.241 92.8438 122.165 92.8392 122.08L92.7135 119.73C92.7053 119.576 92.7496 119.446 92.8464 119.338C93.6373 118.476 94.4416 117.545 95.2593 116.544C96.0761 115.527 96.5888 114.893 96.7975 114.643C97.2444 114.055 97.7012 113.493 98.1678 112.956C99.6259 111.152 100.333 109.833 100.288 108.999C100.256 108.403 100.017 107.929 99.5714 107.577C99.1246 107.208 98.5605 107.041 97.8792 107.078C97.1979 107.114 96.6548 107.34 96.2499 107.754C95.8441 108.152 95.658 108.665 95.6917 109.296L95.7259 109.934C95.7304 110.02 95.7005 110.098 95.636 110.17C95.5876 110.224 95.5208 110.253 95.4357 110.257L92.4208 110.419C92.3356 110.423 92.2576 110.402 92.1867 110.354C92.132 110.289 92.1023 110.214 92.0978 110.128L92.0336 108.928C92.0355 108.005 92.2818 107.18 92.7725 106.454C93.2623 105.71 93.9315 105.128 94.7802 104.707C95.6459 104.285 96.6238 104.044 97.7139 103.986C98.9233 103.921 99.9831 104.095 100.893 104.508C101.82 104.903 102.542 105.47 103.06 106.211C103.595 106.951 103.887 107.79 103.937 108.727C103.976 109.442 103.836 110.184 103.518 110.953C103.201 111.721 102.707 112.559 102.039 113.466C101.546 114.159 101.01 114.845 100.432 115.525C99.8533 116.205 98.9921 117.19 97.8483 118.482L97.4855 118.885Z" fill="#07122B"/>
<path d="M101.696 146.147L94.086 146.554L92.6303 151.386L90.1601 151.518L96.1255 132.983L98.2214 132.871L106.141 150.664L103.684 150.795L101.696 146.147ZM94.7042 144.544L100.88 144.214L97.3315 135.884L94.7042 144.544Z" fill="#07122B"/>
<path d="M112.469 141.255L116.723 131.882L119.442 131.737L113.788 143.462L114.151 150.236L111.755 150.364L111.393 143.59L104.522 132.534L107.266 132.388L112.469 141.255Z" fill="#07122B"/>
<path d="M127.478 141.404C125.392 140.923 123.857 140.279 122.871 139.473C121.893 138.658 121.371 137.618 121.303 136.354C121.227 134.923 121.733 133.712 122.823 132.72C123.92 131.718 125.384 131.169 127.214 131.071C128.461 131.004 129.584 131.186 130.583 131.617C131.59 132.047 132.383 132.671 132.961 133.491C133.546 134.311 133.866 135.224 133.92 136.23L131.512 136.359C131.454 135.261 131.058 134.419 130.326 133.832C129.594 133.238 128.591 132.974 127.319 133.042C126.138 133.105 125.229 133.417 124.591 133.976C123.962 134.527 123.672 135.264 123.721 136.187C123.761 136.927 124.106 137.539 124.758 138.021C125.417 138.494 126.51 138.903 128.039 139.247C129.575 139.59 130.781 139.997 131.657 140.467C132.541 140.929 133.205 141.49 133.649 142.15C134.101 142.81 134.352 143.601 134.401 144.524C134.48 145.996 133.969 147.208 132.869 148.159C131.768 149.102 130.257 149.625 128.336 149.728C127.089 149.794 125.911 149.62 124.805 149.203C123.698 148.779 122.827 148.166 122.192 147.366C121.565 146.566 121.224 145.637 121.167 144.581L123.575 144.452C123.634 145.55 124.084 146.398 124.925 146.995C125.773 147.584 126.876 147.842 128.231 147.769C129.496 147.702 130.451 147.392 131.097 146.84C131.743 146.289 132.042 145.568 131.995 144.678C131.947 143.788 131.598 143.118 130.949 142.669C130.299 142.212 129.142 141.79 127.478 141.404Z" fill="#07122B"/>
<path fill-rule="evenodd" clip-rule="evenodd" d="M102.007 80L102.756 80.1802L103.462 80.1929L104.192 80.2592L104.986 80.2429L105.731 80.4544L106.446 80.5062L107.204 80.6355L107.876 80.7612L108.64 80.7169L109.477 80.8863L110.176 81.1677L110.867 81.3043L111.593 81.4765L111.595 81.4771L112.287 81.637L113.041 81.7243L113.785 81.9256L113.792 81.9277L114.546 82.1184L115.203 82.4147L115.951 82.5246L116.652 82.8557L117.328 83.0399L118.073 83.2424L118.79 83.524L119.513 83.821L120.14 84.1929L120.829 84.4167L121.543 84.7648L122.135 85.1179L122.898 85.3087L123.532 85.7881L124.166 86.0728L124.869 86.4282L125.475 86.859L126.077 87.1697L126.813 87.4513L127.428 87.8953L128.128 88.2232L128.69 88.732L129.341 89.0778L129.902 89.5587L130.585 89.9196L131.087 90.4495L131.77 90.7603L132.327 91.3092L132.939 91.7238L133.495 92.2586L134.047 92.7542L134.558 93.2755L135.11 93.7385L135.643 94.2254L136.243 94.6705L136.817 95.2114L137.315 95.7884L137.316 95.7898L137.317 95.7912L137.787 96.3448L138.258 96.8638L138.804 97.3576L139.332 97.9188L139.802 98.4926L139.807 98.4988L140.288 99.0652L140.715 99.6459L141.225 100.189L141.659 100.829L141.66 100.83L141.661 100.832L142.045 101.408L142.572 101.966L142.929 102.653L143.315 103.206L143.804 103.777L144.21 104.424L144.629 105.063L144.93 105.718L145.372 106.312L145.97 107.65L146.425 108.26L146.69 109.009L146.952 109.648L147.307 110.282L147.594 110.941L147.979 111.561L148.346 112.309L148.442 113.019L148.849 113.618L149.032 114.366L149.358 115.041L149.495 115.778L149.78 116.467L149.878 117.215L150.105 117.89L150.241 118.571L150.571 119.222L150.79 120.001L150.897 120.765L150.97 121.467L151.155 122.178L151.219 122.913L151.37 123.588L151.569 124.362L151.525 125.09L151.737 125.777L151.76 126.555L151.832 127.257L151.833 127.262L151.92 128.033L151.846 128.741L152 129.452L151.957 130.244L151.957 130.246L151.957 130.249L151.911 130.959L151.921 131.661L151.921 131.667L151.941 132.408L151.897 133.145L151.884 133.864L151.868 134.604L151.816 135.34L151.816 135.341L151.762 136.08L151.673 136.793L151.645 137.504L151.645 137.506L151.605 138.283L151.426 138.998L151.378 139.715L151.226 140.477L151.03 141.194L151.028 141.198L150.861 141.835L150.877 142.626L150.552 143.313L150.535 144.042L150.24 144.778L150.057 145.472L149.817 146.156L149.654 146.852L149.439 147.627L149.077 148.232L149.001 148.979L148.588 149.657L148.376 150.345L148.027 150.978L147.846 151.704L147.455 152.34L147.255 153.035L146.876 153.745L146.488 154.336L146.234 154.984L145.923 155.675L145.571 156.362L145.152 156.987L144.762 157.627L144.331 158.176L144.05 158.877L143.55 159.446L143.227 160.133L142.673 160.67L142.336 161.239L141.942 161.956L141.361 162.461L140.973 163.054L140.466 163.604L140.037 164.188L139.54 164.765L139.031 165.312L138.554 165.813L138.135 166.465L137.511 166.977L137.003 167.428L136.569 168.011L136.014 168.569L135.458 169.051L134.902 169.619L134.245 169.962L133.81 170.486L133.224 171.016L132.601 171.499L131.999 171.851L131.502 172.417L130.81 172.807L130.261 173.229L129.682 173.709L129.046 174.15L128.36 174.569L127.649 174.829L127.105 175.162L126.548 175.693L125.835 176.065L125.83 176.068L125.173 176.422L124.495 176.742L123.858 177.06L123.194 177.464L122.461 177.707L121.864 177.995L121.197 178.473L120.45 178.613L119.827 179.066L119.028 179.18L118.389 179.499L117.684 179.681L117.018 180.063L116.23 180.211L115.592 180.42L114.899 180.766L114.093 180.945L113.4 181.041L112.719 181.338L111.931 181.466L111.922 181.467L111.214 181.595L110.515 181.763L109.76 181.969L108.996 182.03L108.292 182.159L108.29 182.16L107.536 182.293L106.835 182.349L106.138 182.59L105.306 182.724L104.574 182.681L103.839 182.854L103.046 182.796L102.316 182.837L101.621 182.817L100.889 183L100.082 182.996L100.076 182.996L99.2954 182.974L98.5769 182.86L97.8614 182.905L97.0684 182.868L96.3332 182.759L95.6405 182.732L94.8975 182.766L94.1037 182.748L93.3175 182.629L92.5815 182.456L92.5708 182.454L91.9164 182.315L91.1467 182.345L90.3757 182.139L89.6682 182.015L89.6657 182.014L88.9086 181.885L88.2007 181.678L87.447 181.568L86.7554 181.308L86.0356 181.222L85.2538 181.009L84.5706 180.724L83.9015 180.551L83.1658 180.406L82.4046 180.201L81.682 179.916L81.6754 179.913L81.033 179.638L80.2568 179.45L79.6345 179.019L78.919 178.85L78.2837 178.468L77.5285 178.298L76.8604 177.834L76.2341 177.511L75.5946 177.184L74.9398 176.915L74.2048 176.658L73.5193 176.278L72.8441 175.897L72.229 175.433L72.226 175.431L71.6905 175.034L70.9413 174.754L70.3796 174.17L69.8314 173.817L69.127 173.462L68.5609 172.941L67.9944 172.57L67.2718 172.181L66.7678 171.581L66.2057 171.175L65.6164 170.689L65.0926 170.207L64.4756 169.793L63.8909 169.259L63.4081 168.742L62.8095 168.312L62.275 167.77L61.7008 167.257L61.2564 166.675L60.7091 166.207L60.1873 165.632L59.7043 165.055L59.2587 164.482L58.7765 163.951L58.2655 163.388L57.8187 162.783L57.3691 162.207L56.9014 161.59L56.5382 160.922L56.1709 160.324L55.7471 159.736L55.3456 159.126L54.9114 158.536L54.4797 157.878L54.1986 157.237L53.7124 156.689L53.3481 155.985L53.3474 155.984L53.0151 155.332L53.0141 155.33L52.6978 154.702L52.2728 154.054L52.0413 153.338L51.6961 152.73L51.3491 152.016L51.1579 151.307L50.8329 150.65L50.6437 149.935L50.3556 149.312L50.3541 149.309L50.0361 148.635L49.742 147.887L49.6411 147.16L49.3733 146.523L49.1545 145.835L48.8368 145.139L48.6814 144.369L48.681 144.367L48.5452 143.677L48.3206 142.961L48.2337 142.208L48.098 141.539L47.8673 140.808L47.8203 140.074L47.6049 139.369L47.5598 138.604L47.4525 137.898L47.3629 137.162L47.2949 136.441L47.192 135.695L47.194 134.977L47.0582 134.259L47.0407 133.445L47.1654 132.748L47.0459 132.056L47.0742 131.305L47.0205 130.589L47 129.823L47.0672 129.043L47.2157 128.311L47.3011 127.639L47.2871 126.896L47.4227 126.154L47.4837 125.469L47.4937 124.72L47.6119 123.983L47.679 123.25L47.8192 122.494L48.0089 121.786L48.1401 121.08L48.2991 120.375L48.416 119.644L48.6066 118.937L48.7417 118.171L49.0796 117.481L49.276 116.805L49.5246 116.125L49.7126 115.425L49.9564 114.702L50.2496 114.026L50.4871 113.367L50.7065 112.655L51.0141 111.941L51.3566 111.305L51.5928 110.674L51.7877 109.924L52.1733 109.237L52.5088 108.585L52.8633 107.97L53.1467 107.263L53.6103 106.629L53.996 106.036L54.3468 105.437L54.644 104.774L55.0122 104.085L55.4624 103.453L55.9207 102.866L56.3707 102.275L56.8229 101.744L57.1741 101.088L57.6753 100.533L58.0361 99.9196L58.522 99.2543L59.1238 98.7723L59.5433 98.2854L59.9398 97.59L60.5775 97.1165L61.0153 96.5825L61.5403 96.0236L62.0677 95.5345L62.5222 94.9788L63.0758 94.3717L63.7111 93.9927L64.1537 93.4396L64.7823 92.9398L65.3338 92.5342L65.8188 91.9362L66.4736 91.5383L66.9822 91.0073L67.6648 90.5618L68.2912 90.2189L68.8354 89.7506L69.458 89.3416L70.0239 88.8864L70.6563 88.4171L71.3506 88.0524L71.9702 87.7405L72.568 87.2573L73.2721 86.9853L73.8614 86.5265L74.5939 86.2469L75.2097 85.8999L75.8938 85.5333L76.5623 85.281L77.1628 84.8609L77.8855 84.5322L78.565 84.2486L79.2861 83.9022L80.0611 83.7821L80.6968 83.5384L81.3982 83.2515L82.1192 83.0353L82.7898 82.7977L83.4642 82.5059L84.1733 82.2261L84.9417 81.9666L85.7164 81.8873L86.3569 81.743L87.0611 81.4086L87.8383 81.3103L88.531 81.0913L89.3444 80.9288L90.0994 80.9574L90.7716 80.8077L91.4759 80.6858L92.2581 80.4189L93.0251 80.5059L93.7012 80.2939L94.4954 80.2364L95.2249 80.1701L95.2299 80.1697L95.9973 80.0922L96.7647 80.112L97.5012 80.1044H98.9889L99.7286 80.1063H100.446L101.178 80.0383L102.007 80ZM101.247 80.9948L100.493 81.0649H99.7286L99.7273 81.0649L98.9876 81.063H97.5038L96.757 81.0707L96.0346 81.0521L95.3225 81.124L94.5765 81.1917L93.8887 81.2415L93.1221 81.482L92.368 81.3964L91.723 81.6165L90.9649 81.7477L90.1904 81.9201L89.4243 81.8912L88.7793 82.02L88.0526 82.2497L87.3439 82.3393L86.6835 82.653L85.8772 82.8346L85.1544 82.9086L84.5151 83.1246L83.844 83.3893L83.1537 83.688L82.4284 83.945L81.7301 84.1544L81.063 84.4273L80.3183 84.7128L79.584 84.8266L78.9717 85.1206L78.2827 85.4083L77.6565 85.6931L77.0291 86.132L76.3056 86.405L75.6877 86.7362L75.017 87.114L74.3536 87.3673L73.7659 87.8249L73.0703 88.0936L72.5105 88.5461L71.8047 88.9014L71.1852 89.2268L70.629 89.6395L70.0413 90.1122L69.4323 90.5123L68.8581 91.0064L68.1746 91.3806L67.6176 91.7441L67.098 92.2867L66.4781 92.6633L66.0207 93.2272L65.3836 93.6959L64.8548 94.1163L64.3706 94.7213L63.7078 95.1168L63.2683 95.5986L62.7882 96.1857L62.2364 96.6974L61.7565 97.2083L61.2637 97.8093L60.6931 98.233L60.3507 98.8337L59.8122 99.4587L59.241 99.9161L58.8588 100.44L58.4727 101.096L57.9846 101.637L57.6399 102.281L57.138 102.87L56.7004 103.444L56.2515 104.019L55.8493 104.584L55.5254 105.19L55.2205 105.87L54.8323 106.532L54.4203 107.166L54.0119 107.725L53.748 108.383L53.3712 109.037L53.0381 109.684L52.7042 110.279L52.5277 110.958L52.2517 111.696L51.8981 112.353L51.6271 112.981L51.4163 113.665L51.1611 114.374L50.8718 115.041L50.6502 115.698L50.459 116.409L50.2071 117.098L49.9969 117.822L49.6818 118.466L49.5626 119.142L49.3739 119.842L49.2601 120.553L49.0986 121.27L48.9638 121.994L48.7742 122.702L48.6486 123.379L48.5827 124.1L48.4703 124.801L48.4607 125.517L48.3927 126.281L48.2663 126.973L48.2797 127.69L48.1813 128.464L48.0366 129.178L47.9786 129.851L47.9971 130.542L48.053 131.287L48.0265 131.993L48.1573 132.751L48.02 133.518L48.0338 134.161L48.1717 134.89L48.1698 135.632L48.2663 136.332L48.3351 137.061L48.4215 137.77L48.5332 138.505L48.5742 139.201L48.7888 139.904L48.8356 140.634L49.0468 141.303L49.2005 142.06L49.2817 142.764L49.495 143.444L49.6404 144.183L49.6408 144.185L49.7743 144.846L50.0704 145.496L50.2936 146.197L50.5927 146.909L50.6952 147.647L50.9367 148.26L51.2436 148.911L51.5687 149.614L51.7548 150.317L52.0788 150.972L52.2708 151.685L52.5651 152.29L52.9433 152.956L53.1654 153.643L53.5498 154.229L53.8894 154.903L53.8905 154.905L54.2205 155.553L54.2218 155.555L54.5294 156.15L55.0363 156.721L55.3456 157.426L55.7195 157.996L56.1533 158.586L56.5573 159.199L56.9898 159.8L57.3888 160.449L57.7296 161.076L58.1475 161.627L58.1514 161.632L58.603 162.211L59.0283 162.787L60.0135 163.871L60.4712 164.46L60.9305 165.01L61.3979 165.524L61.9768 166.019L62.4278 166.61L62.9562 167.082L63.4541 167.587L64.0637 168.024L64.5858 168.584L65.0881 169.043L65.7066 169.457L66.266 169.972L66.8106 170.422L67.445 170.879L67.9069 171.429L68.502 171.75L69.171 172.188L69.6958 172.671L70.3248 172.987L71.0123 173.431L71.4984 173.936L72.1687 174.186L72.8188 174.669L72.8204 174.67L73.3884 175.098L74.0019 175.445L74.0053 175.446L74.6123 175.783L75.2929 176.021L76.0105 176.315L76.6887 176.663L77.3723 177.015L77.9359 177.406L78.6587 177.569L79.2982 177.954L80.045 178.13L80.67 178.562L81.3483 178.727L82.0603 179.032L82.7177 179.291L83.3916 179.473L84.1224 179.616L84.8881 179.815L85.5774 180.102L86.2267 180.279L86.9928 180.37L87.6971 180.635L88.4136 180.74L89.1329 180.951L89.8356 181.07L89.8381 181.071L90.5905 181.203L91.2585 181.381L92.0019 181.353L92.7929 181.52L93.5062 181.687L94.19 181.791L94.8861 181.807L95.6368 181.772L96.426 181.803L97.1649 181.912L97.8538 181.944L98.6243 181.897L99.3876 182.017L100.087 182.037L100.099 182.037L100.769 182.041L101.512 181.855L102.302 181.878L103.055 181.835L103.759 181.887L104.487 181.716L105.256 181.761L105.894 181.657L106.629 181.404L107.409 181.341L108.112 181.217L108.115 181.217L108.866 181.078L109.588 181.021L110.268 180.835L111.009 180.658L111.758 180.522L111.763 180.521L112.436 180.412L113.127 180.111L113.916 180.001L114.564 179.857L115.213 179.533L115.983 179.281L116.669 179.153L117.305 178.788L118.039 178.598L118.729 178.254L119.443 178.152L120.048 177.712L120.798 177.572L121.356 177.172L122.087 176.819L122.774 176.591L123.377 176.224L124.062 175.883L124.725 175.57L125.367 175.224L125.966 174.911L126.499 174.403L127.215 173.965L127.927 173.704L128.504 173.352L129.084 172.95L129.643 172.486L130.263 172.01L130.87 171.668L131.362 171.107L132.045 170.708L132.588 170.286L133.097 169.827L133.612 169.207L134.304 168.845L134.78 168.359L135.339 167.874L135.82 167.39L136.273 166.784L136.868 166.254L137.39 165.826L137.776 165.224L138.31 164.665L138.315 164.66L138.805 164.132L139.266 163.597L139.704 163L140.194 162.469L140.612 161.831L141.164 161.351L141.483 160.771L141.893 160.079L142.413 159.573L142.72 158.922L143.201 158.375L143.472 157.699L143.952 157.087L144.324 156.477L144.723 155.882L145.039 155.266L145.33 154.618L145.612 153.901L146.03 153.262L146.342 152.679L146.549 151.956L146.932 151.334L147.107 150.63L147.469 149.974L147.687 149.267L148.05 148.671L148.126 147.927L148.53 147.252L148.706 146.619L148.876 145.892L149.12 145.196L149.309 144.482L149.561 143.85L149.579 143.091L149.895 142.424L149.881 141.723L150.084 140.952L150.274 140.26L150.407 139.591L150.457 138.851L150.634 138.144L150.668 137.466L150.668 137.461L150.698 136.716L150.789 135.987L150.841 135.274L150.841 135.273L150.891 134.561L150.906 133.845L150.92 133.109L150.963 132.393L150.944 131.683L150.944 131.68L150.933 130.935L150.981 130.193L150.982 130.188L151.017 129.528L150.858 128.793L150.937 128.037L150.86 127.363L150.86 127.361L150.86 127.358L150.784 126.616L150.764 125.933L150.538 125.205L150.584 124.453L150.419 123.808L150.25 123.057L150.188 122.338L150.005 121.635L149.926 120.88L149.83 120.194L149.654 119.566L149.307 118.882L149.158 118.133L148.92 117.428L148.826 116.712L148.552 116.047L148.419 115.338L148.105 114.686L147.939 114.008L147.502 113.365L147.398 112.586L147.12 112.019L146.723 111.381L146.427 110.702L146.067 110.059L145.774 109.345L145.55 108.71L145.118 108.131L144.519 106.793L144.081 106.202L143.768 105.522L143.382 104.934L143.009 104.339L142.536 103.787L142.086 103.143L141.762 102.519L141.272 102L140.845 101.36L140.843 101.356L140.454 100.783L139.956 100.253L139.515 99.6528L139.048 99.1027L138.59 98.5446L138.113 98.0359L137.56 97.5366L137.046 96.9704L136.568 96.4073L136.566 96.4044L136.104 95.8684L135.607 95.4009L135.013 94.9601L134.459 94.454L133.886 93.9736L133.364 93.4406L132.822 92.9546L132.314 92.4656L131.698 92.048L131.2 91.5578L130.502 91.2397L129.979 90.6883L129.341 90.3514L128.78 89.8698L128.117 89.5178L127.573 89.0257L126.923 88.721L126.338 88.2984L125.67 88.0431L124.958 87.6752L124.356 87.2471L123.738 86.9352L123.023 86.6141L122.46 86.1886L121.753 86.0113L121.071 85.6052L120.455 85.3053L119.728 85.0689L119.069 84.6778L118.423 84.4125L118.416 84.4097L117.76 84.152L116.307 83.7565L115.66 83.4511L114.921 83.3425L114.217 83.0252L113.536 82.8528L112.853 82.6678L112.117 82.5825L111.367 82.4092L110.655 82.2404L109.891 82.0893L109.19 81.8071L108.569 81.6813L107.812 81.7252L107.033 81.5793L107.025 81.5779L106.326 81.4587L105.558 81.4031L104.857 81.2043L104.157 81.2187L103.408 81.1507L102.629 81.1367L101.912 80.9641L101.247 80.9948Z" fill="#07122B"/>
<path fill-rule="evenodd" clip-rule="evenodd" d="M97.2209 78L98.4634 78.0965L99.3368 78.1239L99.9172 78.2488L100.573 78.1547L101.621 78.2911L102.073 78.367L102.526 78.2853L103.401 78.1791L104.507 78.1254L105.486 78.3546L106.379 78.5467L106.711 78.6836L107.442 78.5582L108.355 78.879L108.826 78.8947L109.931 78.9603L110.687 79.2715L111.559 79.3819L112.163 79.7227L112.53 79.7449L113.786 79.8978L114.401 80.2931L114.614 80.3087L115.71 80.339L116.765 80.7852L117.284 81.0135L117.91 81.1683L119.12 81.5468L119.505 81.9076L120.229 81.9488L120.713 82.3592L121.526 82.3018L122.733 83.3132L123.032 83.5652L123.416 83.691L124.033 83.9112L124.733 84.0803L125.846 84.4325L126.685 85.0554L127.424 85.56L127.733 85.8718L128.628 86.1393L129.278 87.0079L129.325 87.0382L130.311 87.2789L131.096 88.0883L131.394 88.2923L132.391 88.7357L133.035 89.5974L133.296 89.826L134.111 90.3019L134.503 90.8095L135.027 91.0476L135.994 91.8827L136.195 92.1793L136.773 92.3733L137.55 93.1628L138.263 93.7362L138.77 94.4768L139.697 95.4797L140.297 96.17L140.649 96.7237L140.946 97.0079L141.617 97.5402L142.205 98.245L142.833 98.9547L143.364 99.9345L143.55 100.445L143.905 100.854L144.3 101.494L144.676 101.95L145.35 102.729L145.763 103.744L145.832 103.93L146.229 104.218L147.112 105.394L147.269 106.124L147.452 106.359L148.208 107.309L148.361 108.096L148.681 108.533L149.175 109.685L149.24 110.347L149.579 110.963L149.681 111.708L149.842 112.001L150.216 112.606L150.846 113.655L150.905 114.64L151.036 115.048L151.217 115.499L151.69 116.227L152.038 117.496L152.029 118.088L152.342 118.76L152.332 119.769L152.351 119.877L152.958 120.692L152.91 121.86L153.081 122.561L153.074 123.355L153.175 123.932L153.272 124.593L153.435 125.27L153.622 126.246L153.598 126.987L153.698 127.515L153.942 128.866L153.675 129.409L153.78 129.667L153.803 130.625L153.913 131.314L154 132.464L153.727 133.477L153.561 134.152L153.465 134.613L153.48 135.202L153.44 136.191L153.311 136.71L153.416 137.365L153.277 138.359L153.274 138.375L153.179 139.1L153.074 139.833L152.949 140.658L152.79 141.315L152.724 142.049L152.534 142.837L152.42 143.513L152.229 144.536L151.76 145.424L151.571 145.821L151.47 146.429L151.23 147.175L151.014 148.103L150.578 148.84L150.408 149.31L150.187 150.051L149.819 150.971L149.531 151.432L149.489 151.691L149.42 152.938L148.688 153.932L148.34 154.513L148.137 154.827L147.991 155.716L147.178 156.657L146.855 157.087L146.646 157.467L146.457 158.012L146.104 159.069L145.33 159.979L144.917 160.405L144.465 161.144L144.038 161.481L143.859 161.997L143.351 162.625L143.111 163.196L142.331 164.487L141.526 164.838L140.984 166.103L140.184 166.445L139.996 166.83L139.091 167.615L138.777 167.853L138.532 168.308L137.721 169.328L137.217 169.6L136.833 170.391L135.81 170.825L135.692 170.948L135.125 171.808L134.338 172.273L133.874 172.779L132.777 173.533L132.252 173.658L131.937 174.02L131.392 174.321L131.098 174.761L130.076 175.71L128.932 176.119L128.728 176.183L128.127 176.918L127.328 177.041L126.969 177.475L125.771 177.911L125.399 178.055L124.699 178.649L124.049 178.791L123.691 179.158L122.524 179.766L121.538 180L120.617 176.25L121.125 176.129L121.299 176.039L122.039 175.279L122.887 175.093L123.343 174.707L124.371 174.307L124.604 174.222L125.237 173.457L126.022 173.336L126.414 172.856L127.671 172.465L127.975 172.357L128.074 172.264L128.642 171.416L129.411 170.991L130.096 170.203L131.135 169.955L131.262 169.868L131.818 169.262L132.329 168.96L132.596 168.554L133.514 167.597L133.93 167.421L134.224 166.816L135.128 166.327L135.231 166.198L135.711 165.31L136.593 164.638L136.805 164.455L137.28 163.478L137.981 163.179L138.053 163.011L138.877 161.773L139.598 161.459L139.94 160.647L140.368 160.117L140.695 159.175L141.464 158.567L141.781 158.048L142.407 157.405L142.614 157.161L142.739 156.787L143.04 155.917L143.537 155.012L144.104 154.257L144.295 154.037L144.395 153.425L144.997 152.496L145.405 151.816L145.567 151.595L145.585 151.276L145.785 150.061L146.297 149.241L146.474 148.799L146.676 148.121L147.005 147.209L147.325 146.669L147.443 146.162L147.646 145.531L147.788 144.672L148.242 143.716L148.479 143.268L148.558 142.848L148.687 142.078L148.843 141.431L148.91 140.694L149.096 139.925L149.193 139.288L149.195 139.271L149.293 138.584L149.389 137.856L149.452 137.403L149.314 136.546L149.538 135.649L149.557 135.176L149.533 134.268L149.734 133.309L149.926 132.53L150.041 132.103L150.014 131.757L149.889 130.972L149.877 130.456L149.39 129.263L149.859 128.31L149.842 128.214L149.839 128.198L149.666 127.283L149.689 126.547L149.598 126.073L149.416 125.314L149.301 124.533L149.151 123.667L149.156 123.002L148.97 122.238L148.985 121.885L148.643 121.427L148.407 120.08L148.412 119.584L148.095 118.903L148.109 117.979L148.061 117.804L147.71 117.263L147.339 116.341L147.019 115.344L146.987 114.813L146.853 114.589L146.442 113.925L145.891 112.926L145.789 112.178L145.414 111.497L145.33 110.643L145.24 110.433L144.673 109.658L144.536 108.953L144.351 108.722L143.617 107.776L143.452 107.013L143.426 106.978L142.552 106.344L142.1 105.121L141.948 104.748L141.661 104.416L141.088 103.722L140.719 103.124L140.101 102.413L139.769 101.501L139.583 101.157L139.211 100.736L138.843 100.295L138.342 99.8979L137.575 99.1635L137.128 98.4596L136.755 98.0311L135.678 96.8657L135.335 96.364L134.891 96.0077L134.613 95.7246L133.673 95.4093L133.02 94.4483L132.866 94.315L131.974 93.9088L131.453 93.2359L130.973 92.9555L130.121 92.2119L129.84 91.8352L129.449 91.6613L128.531 91.032L128.261 90.7534L127.73 90.6238L126.537 89.8516L126.243 89.4586L125.628 89.2748L124.879 88.5179L124.386 88.1814L124.014 87.9054L123.664 87.7947L122.894 87.6088L122.127 87.3351L121.064 86.9864L120.206 86.263L119.38 86.3213L118.676 85.7248L117.842 85.6773L117.071 84.9539L116.838 84.881L115.997 84.6732L115.191 84.3189L114.85 84.1748L114.413 84.1627L113.101 84.0664L112.402 83.6168L112.168 83.5884L111.006 83.518L110.285 83.1104L109.663 83.0317L109.031 82.7719L108.642 82.7488L107.611 82.7144L107.097 82.5335L106.252 82.6783L105.192 82.2404L104.614 82.116L104.143 82.0058L103.739 82.0254L103.12 82.1004L102.098 82.2849L101.034 82.1063L100.599 82.0498L99.7767 82.1678L98.8514 81.9687L98.2466 81.9497L97.9992 81.9305L97.7535 82.0513L97.6795 81.9057L97.4557 81.8883L97.485 81.5229L96 78.6006L97.2209 78Z" fill="#EF457E"/>
<path fill-rule="evenodd" clip-rule="evenodd" d="M99.5179 71L100.235 71.1242L100.939 71.0452L101.693 71.065L102.441 71.0318L103.241 71.0779L103.953 71.2303L104.686 71.2169L105.449 71.3546L106.171 71.448L106.92 71.555L107.602 71.6987L108.327 71.6763L109.123 71.7642L109.872 71.935L110.551 72.0971L111.31 72.1365L112.083 72.3738L112.748 72.593L113.471 72.6921L114.214 72.904L114.933 73.1078L115.593 73.328L116.343 73.4057L117.079 73.6673L117.762 73.8642L118.528 74.0407L119.182 74.3745L119.922 74.5047L120.631 74.8836L121.281 75.1677L121.916 75.4182L122.689 75.568L123.372 75.9631L124.041 76.225L124.694 76.5422L125.401 76.7804L126.096 77.1265L126.744 77.4729L127.395 77.7887L128.122 78.121L128.685 78.5978L129.356 78.8572L129.978 79.2848L130.615 79.5778L131.329 79.9207L131.954 80.3894L131.959 80.3933L132.523 80.8042L133.172 81.1538L133.784 81.5859L134.427 81.9774L135.017 82.4479L135.615 82.8756L136.204 83.3393L136.763 83.7866L137.38 84.1971L137.959 84.6689L138.544 85.0955L138.546 85.0971L139.169 85.5622L139.69 86.0869L140.278 86.5347L140.84 87.0995L141.282 87.649L141.828 88.0496L141.829 88.0502L142.459 88.514L143.012 89.0832L143.509 89.6674L143.949 90.2471L144.404 90.7244L145.05 91.1826L145.487 91.8102L146.07 92.3143L146.434 92.9841L146.932 93.4547L147.463 94.0602L147.836 94.696L148.312 95.2135L148.788 95.814L149.209 96.4039L149.698 96.968L150.112 97.5917L150.569 98.1744L150.986 98.8303L151.346 99.4939L151.677 100.1L152.166 100.702L152.44 101.427L152.795 101.986L153.257 102.58L153.658 103.268L153.951 103.95L154.31 104.597L154.58 105.255L155.029 105.896L155.199 106.614L155.64 107.181L155.945 107.941L156.176 108.644L156.433 109.304L156.74 109.985L156.98 110.69L156.984 110.702L157.227 111.358L157.545 112.033L157.792 112.774L157.976 113.511L158.135 114.202L158.38 114.849L158.673 115.534L158.944 116.31L158.978 117.024L159.326 117.683L159.396 118.488L159.539 119.138L159.828 119.89L159.803 120.639L160.068 121.29L160.185 122.074L160.316 122.811L160.361 123.565L160.438 124.289L160.497 124.974L160.709 125.691L160.769 126.503L160.739 127.186L160.968 127.897L160.949 128.693L161 129.402L160.032 129.47L159.978 128.716L159.994 128.037L159.762 127.316L159.797 126.517L159.749 125.865L159.538 125.153L159.473 124.385L159.472 124.375L159.394 123.644L159.351 122.924L159.227 122.229L159.226 122.223L159.125 121.545L158.827 120.811L158.852 120.053L158.606 119.415L158.435 118.633L158.376 117.96L158.018 117.283L157.982 116.495L157.768 115.882L157.479 115.208L157.204 114.48L157.034 113.739L157.032 113.73L156.86 113.043L156.642 112.391L156.331 111.73L156.067 111.018L155.836 110.338L155.537 109.676L155.262 108.969L155.032 108.271L154.789 107.664L154.303 107.039L154.127 106.297L153.723 105.718L153.434 105.014L153.078 104.375L152.789 103.702L152.45 103.12L151.999 102.54L151.567 101.859L151.313 101.187L150.867 100.639L150.492 99.9531L150.148 99.318L149.774 98.7308L149.323 98.1553L148.922 97.5513L148.444 96.9996L148.011 96.3927L147.572 95.839L147.05 95.2716L146.671 94.6256L146.231 94.1232L145.654 93.5784L145.3 92.9278L144.758 92.4591L144.349 91.8706L143.765 91.4563L143.207 90.872L142.75 90.2702L142.292 89.731L141.817 89.2424L141.253 88.8266L140.604 88.3508L140.114 87.7421L139.636 87.2607L139.048 86.8128L138.529 86.2913L137.97 85.8739L137.966 85.8706L137.364 85.4319L136.802 84.9733L136.188 84.5653L135.6 84.0948L135.597 84.0926L135.031 83.6463L134.43 83.217L133.868 82.7687L133.249 82.3919L132.658 81.9747L132.003 81.6216L131.378 81.1659L130.822 80.7486L130.204 80.4522L130.197 80.4488L129.495 80.1259L128.898 79.7158L128.181 79.4385L127.595 78.9424L126.979 78.6609L126.302 78.332L125.65 77.9834L125.026 77.6732L124.324 77.4365L123.65 77.109L122.948 76.8343L122.343 76.4843L121.642 76.3484L120.907 76.0584L120.206 75.7519L119.6 75.4282L118.869 75.2996L118.192 74.954L117.517 74.7985L116.78 74.5861L116.127 74.3536L115.386 74.2769L114.646 74.0299L113.947 73.832L113.27 73.6388L112.527 73.5371L111.787 73.293L111.139 73.0941L110.412 73.0563L109.653 72.8753L109.648 72.8741L108.96 72.7174L108.289 72.6431L107.516 72.667L106.75 72.5058L106.043 72.4047L106.037 72.4038L105.3 72.3086L104.607 72.1837L103.858 72.1974L103.11 72.0371L102.435 71.9982L101.701 72.0307L100.981 72.0118L100.206 72.0988L99.4518 71.9682L98.7622 71.9935L98.0018 72.0114L97.3102 71.977L96.5548 72.138L95.7984 72.0319L95.1306 72.1374L94.3592 72.2391L93.6238 72.2334L92.8979 72.3467L92.1284 72.3527L91.4281 72.3801L90.7748 72.4907L90.0496 72.7603L89.2792 72.827L88.5403 72.987L87.8072 72.9984L87.1074 73.1919L86.3779 73.2411L85.6839 73.475L84.9806 73.5542L84.2796 73.9039L83.4825 73.9099L82.876 74.1099L82.1861 74.4178L81.4633 74.6181L80.7681 74.885L80.0091 75.0728L79.3399 75.2038L78.6988 75.5481L77.9327 75.7599L77.2685 75.9394L76.6129 76.2819L75.8837 76.4869L75.2355 76.7741L74.5833 77.0466L73.9546 77.4211L73.2387 77.7595L72.5635 77.9748L71.9638 78.37L71.2505 78.682L70.6118 78.9632L69.9985 79.3597L69.3226 79.688L68.6921 80.0472L68.0533 80.3954L67.4605 80.7683L66.867 81.2151L66.2076 81.6127L65.5554 81.9751L65.5539 81.9759L64.9332 82.3237L64.375 82.7177L63.824 83.2101L63.2153 83.6499L62.6237 84.1125L61.9927 84.5133L61.4004 84.94L60.8143 85.3348L60.2755 85.8455L59.6863 86.2272L59.2245 86.8351L58.5691 87.2251L58.0997 87.7705L57.5026 88.2097L57.0106 88.7732L56.406 89.19L55.9584 89.749L55.4116 90.2176L55.0105 90.8042L54.4853 91.4064L53.9236 91.8861L53.473 92.4085L52.9888 93.0192L52.4373 93.4588L52.0943 94.0984L51.5289 94.6526L51.0846 95.1715L50.6731 95.8094L50.1273 96.3424L49.7024 96.8968L49.2815 97.4638L48.9201 98.0785L48.9189 98.0806L48.5204 98.7506L48.0547 99.2881L47.755 99.967L47.2585 100.553L46.909 101.157L46.5445 101.758L46.2605 102.434L45.8871 103.1L45.5255 103.732L45.1663 104.414L44.6956 105L44.3991 105.554L44.2268 106.284L43.8586 106.985L43.5389 107.615L43.2609 108.327L42.8621 108.929L42.6709 109.596L42.3813 110.284L42.1346 111.014L41.7507 111.638L41.5795 112.273L41.4155 113.007L41.1791 113.725L41.1785 113.727L40.9464 114.421L40.9457 114.424L40.717 115.12L40.4851 115.812L40.4837 115.816L40.2553 116.519L40.0085 117.192L39.8517 117.881L39.6769 118.603L39.502 119.262L39.4834 120.058L39.1558 120.735L39.154 121.411L39.0291 122.163L38.9355 122.944L38.6499 123.648L38.5572 124.291L38.5293 125.047L38.3735 125.735L38.445 126.459L38.3411 127.271L38.1588 127.968L38.1394 128.637L38.1546 129.353L38.1919 130.1L38.1777 130.862L38.1242 131.583L38.1412 132.299V133.092L37.9785 133.809L38.0302 134.484L38.0459 135.223L38.0824 135.952L37.1134 136L37.0762 135.258L37.0608 134.53L37 133.738L37.171 132.984V132.31L37.1531 131.559L37.2082 130.817L37.2212 130.115L37.1848 129.387L37.1689 128.633L37.1922 127.831L37.3864 127.088L37.4687 126.445L37.3927 125.675L37.563 124.922L37.5895 124.204L37.7062 123.395L37.9874 122.702L38.0683 122.027L38.184 121.331L38.1861 120.513L38.5183 119.827L38.5347 119.126L38.7361 118.367L38.9061 117.665L38.9076 117.658L39.0759 116.918L39.3376 116.205L39.5625 115.513L39.7952 114.818L39.7961 114.816L40.0242 114.122L40.025 114.119L40.2572 113.424L40.2578 113.422L40.4787 112.752L40.6369 112.043L40.8499 111.253L41.2499 110.603L41.4728 109.943L41.7537 109.276L41.97 108.522L42.3939 107.882L42.6515 107.222L42.9954 106.544L43.3102 105.944L43.4834 105.211L43.8815 104.468L44.3501 103.884L44.674 103.269L45.0407 102.628L45.043 102.624L45.3865 102.011L45.6769 101.32L46.0731 100.667L46.4609 99.9967L46.923 99.4514L47.2248 98.7675L47.7293 98.1854L48.0826 97.5912L48.0838 97.5892L48.4702 96.932L48.9264 96.3175L49.3979 95.7022L49.9155 95.1967L50.3034 94.5953L50.8178 93.9947L51.308 93.5142L51.6751 92.8296L52.2956 92.3349L52.7236 91.7952L53.2354 91.2018L53.7991 90.7203L54.2403 90.2145L54.6814 89.5695L55.2562 89.0768L55.7361 88.4776L56.3579 88.0489L56.84 87.4967L57.4343 87.0596L57.9351 86.4777L58.5643 86.1033L59.0146 85.5105L59.6711 85.0853L60.2034 84.5807L60.8437 84.1493L61.4467 83.715L62.0615 83.3245L62.6302 82.8798L63.2131 82.4586L63.7681 81.9627L64.4129 81.5074L65.0792 81.1341L65.0808 81.1333L65.7194 80.7784L66.3213 80.4155L66.9075 79.9743L67.5605 79.5635L68.2179 79.2051L68.8681 78.8347L69.5195 78.5183L70.1482 78.1118L70.8589 77.7989L71.4972 77.5198L72.1395 77.0965L72.8808 76.8601L73.4961 76.5693L74.1441 76.1833L74.8503 75.8882L75.5527 75.577L76.2516 75.3805L76.9116 75.0358L77.6743 74.8296L77.677 74.8289L78.3338 74.6473L79.0083 74.285L79.7983 74.1304L80.4752 73.9629L81.1577 73.7009L81.8555 73.5075L82.5239 73.2092L83.3222 72.946L84.0464 72.9405L84.7 72.6145L85.4713 72.5277L86.1861 72.2867L86.943 72.2356L87.6675 72.0353L88.4285 72.0235L89.1334 71.8708L89.8338 71.8101L90.5213 71.5546L91.3272 71.4182L92.1055 71.3877L92.8185 71.3821L93.5519 71.2676L94.299 71.2735L94.9907 71.1822L95.7899 71.056L96.5198 71.1584L97.2314 71.0067L98.0146 71.0456L98.7296 71.0289L98.736 71.0287L99.5179 71Z" fill="#07122B"/>
<path fill-rule="evenodd" clip-rule="evenodd" d="M126.182 51L127 51.0118L126.959 51.3968L126.169 51.3855L125.38 51.39L124.633 51.3922L123.842 51.4575L122.962 51.4634L122.226 51.4409L121.448 51.5229L120.587 51.5105L119.783 51.5292L119.02 51.5116L118.23 51.5754L117.365 51.5572L116.643 51.553L115.862 51.6255L114.989 51.6305L114.176 51.6227L114.173 51.6227L113.416 51.614L112.654 51.6531L111.817 51.6822L111.051 51.6793L110.269 51.7464L109.37 51.7541L108.594 51.712L107.868 51.7507L107.032 51.7856L106.249 51.7818L105.458 51.8364L104.583 51.8347L103.819 51.8062L103.039 51.8508L102.258 51.8381L101.487 51.9058L100.63 51.9141L99.8669 51.92L99.0578 51.9678L98.1848 51.9577L97.4383 51.9269L96.694 51.9784L95.8347 52L95 51.9848L95.052 51.5999L95.8249 51.614L96.5606 51.5955L97.3988 51.5375L98.26 51.573L98.9903 51.5815L99.7721 51.5353L100.607 51.5288L101.35 51.5217L102.158 51.4507L102.981 51.4641L103.791 51.4178L104.639 51.4494L105.363 51.4508L106.159 51.396L106.979 51.3999L107.734 51.3685L108.595 51.3225L109.435 51.3681L110.135 51.362L110.936 51.2935L111.773 51.2967L112.531 51.2703L113.36 51.2278L114.203 51.2375L114.206 51.2375L114.994 51.2451L115.724 51.2409L116.521 51.1669L117.403 51.172L118.146 51.1877L118.938 51.1236L119.783 51.143L120.574 51.1247L121.32 51.1354L122.121 51.051L122.996 51.0778L123.716 51.0729L124.512 51.0072L125.366 51.0047L125.37 51.0047L126.182 51Z" fill="#07122B"/>
</svg>
