<svg width="220" height="215" viewBox="0 0 220 215" fill="none" xmlns="http://www.w3.org/2000/svg">
<path d="M65.0006 183.715L63.3726 183.175L61.7542 183.215L60.1416 183.092L58.5367 182.906L56.9472 182.651L55.3732 182.326L53.7528 182L53.749 182.777L51.8955 183.073L50.9072 182.174L49.3004 182.485L48.1579 182.93L46 183.475L48.1367 184.361L49.7994 184.452L51.4524 184.618L53.1171 184.687L54.7605 184.946L56.4155 185.094L58.082 185.148L59.7312 185.37L61.3901 185.488L63.047 185.627L64.7001 185.803L66.3531 185.961L68.0197 186.027L69.7614 186.159L71.4838 186.451L73.2178 186.641L74.9711 186.708L76.7031 186.93L78.4333 187.146L80.1672 187.347L81.8897 187.619L83.6159 187.866L85.375 187.898L87.0993 188.167L88.8314 188.395L90.5827 188.452L92.3225 188.623L94.07 188.684L95.8097 188.855L97.5553 189L99.3066 188.961L101.056 188.971L102.802 188.894L103 187.692L101.233 187.379L99.4935 186.982L97.7711 186.528L96.0525 186.051L94.3031 185.683L92.5152 185.465L90.7812 185.032L89.0009 184.797L87.2207 184.574L85.3576 184.43L84.9261 186.071L84.0282 184.819L83.5447 186.117L82.6758 184.658L80.8435 184.623L79.0806 184.498L77.3235 184.297L75.5529 184.295L73.7842 184.238L72.0175 184.134L70.245 184.183L68.4782 184.092L66.7211 183.901L65.0006 183.715Z" fill="#E5DFD6"/>
<path fill-rule="evenodd" clip-rule="evenodd" d="M90.0889 149.001C90.1236 148.999 90.1584 149.001 90.1927 149.005L92.0127 149.261C92.0294 149.264 92.0459 149.267 92.0622 149.271L93.8308 149.686C93.8585 149.692 93.8855 149.701 93.9115 149.711L95.5655 150.386C95.5685 150.387 95.5714 150.388 95.5744 150.389L97.2106 151.091C97.254 151.11 97.294 151.134 97.3294 151.163L98.9794 152.504C98.9869 152.51 98.9941 152.517 99.0011 152.523L100.146 153.577L101.515 154.407C101.538 154.421 101.559 154.436 101.578 154.453L102.807 155.498L104.01 156.518L105.393 157.327C105.398 157.33 105.404 157.333 105.409 157.336L106.796 158.218C107.017 158.358 107.066 158.629 106.906 158.822C106.745 159.015 106.436 159.058 106.216 158.917L104.836 158.041L103.424 157.216C103.399 157.201 103.375 157.185 103.354 157.166L102.118 156.118L100.919 155.097L99.5413 154.262C99.5136 154.245 99.488 154.226 99.4648 154.204L98.2956 153.128L96.7101 151.839L95.1438 151.167L93.5333 150.511L91.8308 150.111L90.0875 149.866L88.3439 149.945L86.6063 150.299C86.3406 150.353 86.0749 150.209 86.013 149.976C85.9511 149.744 86.1163 149.512 86.382 149.457L88.1624 149.094C88.1909 149.088 88.2199 149.085 88.2491 149.084L90.0889 149.001Z" fill="#07122B"/>
<path fill-rule="evenodd" clip-rule="evenodd" d="M81.2992 149.176C81.4094 149.035 81.5978 148.971 81.7774 149.013L83.542 149.423L85.3266 149.721C85.5765 149.763 85.7436 149.989 85.6996 150.226C85.6557 150.464 85.4175 150.623 85.1675 150.581L83.3679 150.281C83.358 150.279 83.348 150.277 83.3382 150.275L81.8551 149.93L81.0021 151.021C80.9002 151.151 80.7306 151.217 80.5618 151.192L79.0586 150.967L77.5947 150.842L76.1295 151.079C76.122 151.08 76.1144 151.081 76.1067 151.082L74.638 151.248C74.6289 151.249 74.6198 151.25 74.6107 151.25L73.1558 151.331L71.7136 151.539C71.7087 151.54 71.7038 151.541 71.6989 151.541L70.2512 151.705L68.612 152.025C68.5914 152.029 68.5706 152.031 68.5497 152.032L66.9136 152.134L65.3548 152.561C65.2172 152.599 65.0689 152.573 64.9539 152.492C64.8388 152.411 64.7701 152.284 64.768 152.148L64.7506 151.006L63.9531 151.193L62.5113 151.69L61.1252 152.272L59.8659 153.077L58.5529 154.018L57.5844 155.299C57.5824 155.301 57.5805 155.304 57.5784 155.307L56.5525 156.602L55.5688 157.874L54.9773 159.347L54.4162 160.859L54.0389 162.42L53.6905 164.005L53.4052 165.597L53.2007 167.207C53.2 167.212 53.1993 167.218 53.1984 167.223L52.9353 168.808L52.9192 170.286L52.9994 171.792C52.9999 171.802 53.0001 171.812 52.9999 171.822L52.973 173.313L53.1957 174.789L53.423 176.272L53.8379 177.7L54.3608 179.13L54.444 179.359L54.459 179.317C54.5093 179.173 54.6343 179.064 54.7894 179.029C54.9444 178.995 55.1074 179.039 55.2201 179.146L55.4348 179.35L55.492 178.885C55.5032 178.793 55.5449 178.707 55.6109 178.639L56.6862 177.534C56.7088 177.511 56.7339 177.49 56.7612 177.472L58.0608 176.613C58.0871 176.595 58.1153 176.581 58.1449 176.569L59.5713 175.998C59.6431 175.969 59.7215 175.958 59.7991 175.966L61.4803 176.138L63.1488 176.279C63.151 176.28 63.1531 176.28 63.1552 176.28L63.1568 176.28L64.8277 176.45C64.8378 176.451 64.8479 176.452 64.8579 176.454L66.4737 176.721L68.1128 176.713C68.1222 176.713 68.1316 176.713 68.141 176.713L69.8155 176.802C69.8267 176.803 69.8377 176.804 69.8488 176.805L71.3535 176.99L72.8497 176.985L74.3438 176.883L75.8319 176.601C75.8596 176.595 75.8877 176.592 75.916 176.592L77.4326 176.573L78.9346 176.383C78.9481 176.381 78.9616 176.38 78.9751 176.379L80.5155 176.315C80.5458 176.314 80.5761 176.315 80.606 176.32L82.343 176.575C82.527 176.602 82.6756 176.731 82.7195 176.903L83.2011 178.789C83.2052 178.805 83.2083 178.822 83.2105 178.838L83.4145 180.393L84.0271 181.839L84.2035 182.218L84.22 182.154C84.2605 181.998 84.3881 181.876 84.5521 181.836C84.7161 181.796 84.89 181.845 85.0045 181.963L85.467 182.442L85.6082 181.223C85.6147 181.167 85.6324 181.113 85.6604 181.063L86.8166 179.024C86.8388 178.985 86.8672 178.949 86.9007 178.918L88.5569 177.386C88.5618 177.382 88.5667 177.378 88.5718 177.373L90.2371 175.964C90.3033 175.908 90.3851 175.871 90.4727 175.858L92.6289 175.542C92.6462 175.54 92.6636 175.538 92.6811 175.538L94.5652 175.468L94.5684 175.468L96.4371 175.411L98.2615 175.196L100.498 174.7L102.062 173.581L103.236 172.529C103.248 172.518 103.26 172.508 103.273 172.499L104.578 171.556C104.58 171.555 104.581 171.554 104.583 171.553C104.584 171.552 104.585 171.551 104.586 171.55L105.908 170.637C105.913 170.633 105.918 170.63 105.924 170.626L107.286 169.765C107.497 169.632 107.782 169.686 107.923 169.887C108.064 170.088 108.006 170.359 107.795 170.492L106.441 171.348L105.131 172.253L103.849 173.18L102.674 174.233C102.662 174.244 102.649 174.254 102.635 174.264L100.973 175.453C100.922 175.489 100.864 175.516 100.801 175.529L98.4466 176.051C98.4308 176.055 98.4148 176.058 98.3987 176.06L96.5293 176.28C96.5214 176.281 96.5135 176.281 96.5055 176.282C96.4995 176.282 96.4935 176.283 96.4875 176.283L94.601 176.34L94.5979 176.34L92.7432 176.409L90.7471 176.702L89.1907 178.019L87.5924 179.497L86.512 181.403L86.27 183.492C86.2503 183.663 86.1276 183.806 85.9563 183.86C85.7851 183.913 85.5968 183.866 85.4748 183.74L84.9075 183.154L84.7742 183.668C84.7271 183.849 84.564 183.982 84.3682 183.998C84.1724 184.015 83.9873 183.911 83.9077 183.74L83.1835 182.186C83.1814 182.181 83.1793 182.177 83.1774 182.172L82.5396 180.667C82.5247 180.632 82.5147 180.595 82.5098 180.558L82.3017 178.971L81.8988 177.393L80.5106 177.189L79.036 177.251L77.5268 177.442C77.5087 177.444 77.4904 177.446 77.4721 177.446L75.9705 177.465L74.4956 177.745C74.4767 177.748 74.4576 177.751 74.4384 177.752L72.8998 177.857C72.8918 177.858 72.8838 177.858 72.8757 177.858C72.8734 177.858 72.871 177.858 72.8686 177.858L71.3264 177.863C71.3061 177.863 71.2859 177.862 71.2658 177.86L69.7475 177.673L68.1037 177.586L66.4377 177.594C66.4104 177.595 66.3832 177.592 66.3563 177.588L64.7151 177.316L63.0634 177.149L61.3946 177.008C61.3917 177.007 61.3889 177.007 61.386 177.007L59.8186 176.846L58.5462 177.356L57.3273 178.161L56.3875 179.128L56.2376 180.347C56.2171 180.513 56.0984 180.653 55.932 180.708C55.7656 180.763 55.5808 180.723 55.4562 180.605L55.0964 180.263L54.8882 180.858C54.8261 181.036 54.6517 181.156 54.4547 181.157C54.2577 181.158 54.0819 181.04 54.0177 180.863L53.492 179.415L52.9648 177.974C52.9615 177.965 52.9585 177.955 52.9559 177.946L52.5294 176.478C52.5243 176.46 52.5204 176.442 52.5176 176.424L52.286 174.914L52.058 173.402C52.0545 173.379 52.053 173.356 52.0534 173.333L52.0807 171.821L52.0006 170.317C52.0001 170.308 51.9999 170.299 52 170.29L52.0166 168.767C52.0168 168.746 52.0187 168.725 52.0221 168.704L52.2892 167.095L52.4941 165.482C52.495 165.475 52.4961 165.468 52.4973 165.461L52.7859 163.851C52.7869 163.846 52.7879 163.84 52.7891 163.835L53.1402 162.237C53.1406 162.235 53.141 162.233 53.1414 162.232C53.1417 162.231 53.1419 162.23 53.1421 162.229L53.5263 160.639C53.5302 160.623 53.535 160.607 53.5408 160.592L54.1125 159.052C54.1138 159.048 54.1151 159.045 54.1165 159.041L54.7323 157.508C54.747 157.471 54.7669 157.437 54.7913 157.405L55.8133 156.083L55.8165 156.079L56.841 154.785L57.8472 153.455C57.8742 153.419 57.9067 153.388 57.9436 153.361L59.3222 152.373C59.3288 152.368 59.3356 152.364 59.3425 152.359L60.6457 151.526C60.6681 151.512 60.6917 151.5 60.7163 151.489L62.1538 150.885C62.1634 150.881 62.1731 150.877 62.183 150.874L63.6627 150.364C63.6781 150.359 63.6938 150.354 63.7097 150.35L65.092 150.027C65.228 149.996 65.3718 150.024 65.4826 150.106C65.5935 150.187 65.6592 150.312 65.6612 150.445L65.6783 151.564L66.7067 151.282C66.7385 151.273 66.7711 151.268 66.8041 151.266L68.4582 151.163L70.0854 150.846C70.0979 150.844 70.1106 150.842 70.1234 150.84L71.5828 150.675L73.0387 150.465C73.0527 150.463 73.0667 150.462 73.0809 150.461L74.5432 150.379L75.9868 150.216L77.4993 149.972C77.5383 149.966 77.578 149.964 77.6174 149.967L79.1559 150.098C79.1661 150.099 79.1762 150.101 79.1863 150.102L80.4301 150.288L81.2992 149.176Z" fill="#07122B"/>
<path fill-rule="evenodd" clip-rule="evenodd" d="M81.2992 149.176C81.4094 149.035 81.5978 148.971 81.7774 149.013L83.542 149.423L85.3266 149.721C85.5765 149.763 85.7436 149.989 85.6996 150.226C85.6557 150.464 85.4175 150.623 85.1675 150.581L83.3679 150.281C83.358 150.279 83.348 150.277 83.3382 150.275L81.8551 149.93L81.0021 151.021C80.9002 151.151 80.7306 151.217 80.5618 151.192L79.0586 150.967L77.5947 150.842L76.1295 151.079C76.122 151.08 76.1144 151.081 76.1067 151.082L74.638 151.248C74.6289 151.249 74.6198 151.25 74.6107 151.25L73.1558 151.331L71.7136 151.539C71.7087 151.54 71.7038 151.541 71.6989 151.541L70.2512 151.705L68.612 152.025C68.5914 152.029 68.5706 152.031 68.5497 152.032L66.9136 152.134L65.3548 152.561C65.2172 152.599 65.0689 152.573 64.9539 152.492C64.8388 152.411 64.7701 152.284 64.768 152.148L64.7506 151.006L63.9531 151.193L62.5113 151.69L61.1252 152.272L59.8659 153.077L58.5529 154.018L57.5844 155.299C57.5824 155.301 57.5805 155.304 57.5784 155.307L56.5525 156.602L55.5688 157.874L54.9773 159.347L54.4162 160.859L54.0389 162.42L53.6905 164.005L53.4052 165.597L53.2007 167.207C53.2 167.212 53.1993 167.218 53.1984 167.223L52.9353 168.808L52.9192 170.286L52.9994 171.792C52.9999 171.802 53.0001 171.812 52.9999 171.822L52.973 173.313L53.1957 174.789L53.423 176.272L53.8379 177.7L54.3608 179.13L54.444 179.359L54.459 179.317C54.5093 179.173 54.6343 179.064 54.7894 179.029C54.9444 178.995 55.1074 179.039 55.2201 179.146L55.4348 179.35L55.492 178.885C55.5032 178.793 55.5449 178.707 55.6109 178.639L56.6862 177.534C56.7088 177.511 56.7339 177.49 56.7612 177.472L58.0608 176.613C58.0871 176.595 58.1153 176.581 58.1449 176.569L59.5713 175.998C59.6431 175.969 59.7215 175.958 59.7991 175.966L61.4803 176.138L63.1488 176.279C63.151 176.28 63.1531 176.28 63.1552 176.28L63.1568 176.28L64.8277 176.45C64.8378 176.451 64.8479 176.452 64.8579 176.454L66.4737 176.721L68.1128 176.713C68.1222 176.713 68.1316 176.713 68.141 176.713L69.8155 176.802C69.8267 176.803 69.8377 176.804 69.8488 176.805L71.3535 176.99L72.8497 176.985L74.3438 176.883L75.8319 176.601C75.8596 176.595 75.8877 176.592 75.916 176.592L77.4326 176.573L78.9346 176.383C78.9481 176.381 78.9616 176.38 78.9751 176.379L80.5155 176.315C80.5458 176.314 80.5761 176.315 80.606 176.32L82.343 176.575C82.527 176.602 82.6756 176.731 82.7195 176.903L83.2011 178.789C83.2052 178.805 83.2083 178.822 83.2105 178.838L83.4145 180.393L84.0271 181.839L84.2035 182.218L84.22 182.154C84.2605 181.998 84.3881 181.876 84.5521 181.836C84.7161 181.796 84.89 181.845 85.0045 181.963L85.467 182.442L85.6082 181.223C85.6147 181.167 85.6324 181.113 85.6604 181.063L86.8166 179.024C86.8388 178.985 86.8672 178.949 86.9007 178.918L88.5569 177.386C88.5618 177.382 88.5667 177.378 88.5718 177.373L90.2371 175.964C90.3033 175.908 90.3851 175.871 90.4727 175.858L92.6289 175.542C92.6462 175.54 92.6636 175.538 92.6811 175.538L94.5652 175.468L94.5684 175.468L96.4371 175.411L98.2615 175.196L100.498 174.7L102.062 173.581L103.236 172.529C103.248 172.518 103.26 172.508 103.273 172.499L104.578 171.556C104.58 171.555 104.581 171.554 104.583 171.553C104.584 171.552 104.585 171.551 104.586 171.55L105.908 170.637C105.913 170.633 105.918 170.63 105.924 170.626L107.286 169.765C107.497 169.632 107.782 169.686 107.923 169.887C108.064 170.088 108.006 170.359 107.795 170.492L106.441 171.348L105.131 172.253L103.849 173.18L102.674 174.233C102.662 174.244 102.649 174.254 102.635 174.264L100.973 175.453C100.922 175.489 100.864 175.516 100.801 175.529L98.4466 176.051C98.4308 176.055 98.4148 176.058 98.3987 176.06L96.5293 176.28C96.5214 176.281 96.5135 176.281 96.5055 176.282C96.4995 176.282 96.4935 176.283 96.4875 176.283L94.601 176.34L94.5979 176.34L92.7432 176.409L90.7471 176.702L89.1907 178.019L87.5924 179.497L86.512 181.403L86.27 183.492C86.2503 183.663 86.1276 183.806 85.9563 183.86C85.7851 183.913 85.5968 183.866 85.4748 183.74L84.9075 183.154L84.7742 183.668C84.7271 183.849 84.564 183.982 84.3682 183.998C84.1724 184.015 83.9873 183.911 83.9077 183.74L83.1835 182.186C83.1814 182.181 83.1793 182.177 83.1774 182.172L82.5396 180.667C82.5247 180.632 82.5147 180.595 82.5098 180.558L82.3017 178.971L81.8988 177.393L80.5106 177.189L79.036 177.251L77.5268 177.442C77.5087 177.444 77.4904 177.446 77.4721 177.446L75.9705 177.465L74.4956 177.745C74.4767 177.748 74.4576 177.751 74.4384 177.752L72.8998 177.857C72.8918 177.858 72.8838 177.858 72.8757 177.858C72.8734 177.858 72.871 177.858 72.8686 177.858L71.3264 177.863C71.3061 177.863 71.2859 177.862 71.2658 177.86L69.7475 177.673L68.1037 177.586L66.4377 177.594C66.4104 177.595 66.3832 177.592 66.3563 177.588L64.7151 177.316L63.0634 177.149L61.3946 177.008C61.3917 177.007 61.3889 177.007 61.386 177.007L59.8186 176.846L58.5462 177.356L57.3273 178.161L56.3875 179.128L56.2376 180.347C56.2171 180.513 56.0984 180.653 55.932 180.708C55.7656 180.763 55.5808 180.723 55.4562 180.605L55.0964 180.263L54.8882 180.858C54.8261 181.036 54.6517 181.156 54.4547 181.157C54.2577 181.158 54.0819 181.04 54.0177 180.863L53.492 179.415L52.9648 177.974C52.9615 177.965 52.9585 177.955 52.9559 177.946L52.5294 176.478C52.5243 176.46 52.5204 176.442 52.5176 176.424L52.286 174.914L52.058 173.402C52.0545 173.379 52.053 173.356 52.0534 173.333L52.0807 171.821L52.0006 170.317C52.0001 170.308 51.9999 170.299 52 170.29L52.0166 168.767C52.0168 168.746 52.0187 168.725 52.0221 168.704L52.2892 167.095L52.4941 165.482C52.495 165.475 52.4961 165.468 52.4973 165.461L52.7859 163.851C52.7869 163.846 52.7879 163.84 52.7891 163.835L53.1402 162.237C53.1406 162.235 53.141 162.233 53.1414 162.232C53.1417 162.231 53.1419 162.23 53.1421 162.229L53.5263 160.639C53.5302 160.623 53.535 160.607 53.5408 160.592L54.1125 159.052C54.1138 159.048 54.1151 159.045 54.1165 159.041L54.7323 157.508C54.747 157.471 54.7669 157.437 54.7913 157.405L55.8133 156.083L55.8165 156.079L56.841 154.785L57.8472 153.455C57.8742 153.419 57.9067 153.388 57.9436 153.361L59.3222 152.373C59.3288 152.368 59.3356 152.364 59.3425 152.359L60.6457 151.526C60.6681 151.512 60.6917 151.5 60.7163 151.489L62.1538 150.885C62.1634 150.881 62.1731 150.877 62.183 150.874L63.6627 150.364C63.6781 150.359 63.6938 150.354 63.7097 150.35L65.092 150.027C65.228 149.996 65.3718 150.024 65.4826 150.106C65.5935 150.187 65.6592 150.312 65.6612 150.445L65.6783 151.564L66.7067 151.282C66.7385 151.273 66.7711 151.268 66.8041 151.266L68.4582 151.163L70.0854 150.846C70.0979 150.844 70.1106 150.842 70.1234 150.84L71.5828 150.675L73.0387 150.465C73.0527 150.463 73.0667 150.462 73.0809 150.461L74.5432 150.379L75.9868 150.216L77.4993 149.972C77.5383 149.966 77.578 149.964 77.6174 149.967L79.1559 150.098C79.1661 150.099 79.1762 150.101 79.1863 150.102L80.4301 150.288L81.2992 149.176Z" fill="#07122B"/>
<path fill-rule="evenodd" clip-rule="evenodd" d="M104.371 157.032C104.465 156.994 104.567 156.99 104.664 157.02L106.193 157.493C106.273 157.518 106.345 157.565 106.402 157.63L107.606 158.997C107.649 159.046 107.683 159.104 107.705 159.167L108.32 160.943C108.329 160.967 108.335 160.992 108.34 161.018L108.69 162.87L108.991 164.503C108.998 164.54 109.001 164.579 109 164.617L108.949 166.28L108.949 166.285L108.882 167.948C108.881 167.974 108.878 168 108.873 168.026L108.562 169.663C108.553 169.715 108.535 169.765 108.51 169.812L107.796 171.158C107.746 171.252 107.67 171.326 107.578 171.37L106.652 171.805C106.605 171.827 106.556 171.84 106.505 171.845L104.821 171.998C104.774 172.002 104.727 171.999 104.682 171.988L103.037 171.602C103.001 171.593 102.966 171.58 102.934 171.563L101.41 170.771C101.36 170.745 101.314 170.709 101.275 170.666L100.1 169.34C100.065 169.3 100.036 169.255 100.014 169.205L99.2966 167.555C99.2776 167.511 99.2645 167.465 99.2577 167.417L99.0054 165.632C98.9665 165.357 99.1418 165.1 99.397 165.058C99.6521 165.016 99.8904 165.205 99.9293 165.48L100.171 167.193L100.828 168.703L101.892 169.903L103.29 170.63L104.812 170.988L106.349 170.848L107.062 170.513L107.662 169.382L107.95 167.864L108.015 166.244L108.064 164.642L107.774 163.069L107.773 163.067L107.432 161.258L106.863 159.616L105.812 158.424L104.554 158.034L103.268 158.551L102.125 159.509L101.296 160.831L100.602 162.34C100.487 162.589 100.207 162.691 99.9756 162.567C99.7444 162.444 99.6499 162.142 99.7646 161.892L100.473 160.353C100.482 160.333 100.493 160.313 100.504 160.295L101.392 158.878C101.42 158.834 101.454 158.795 101.493 158.762L102.751 157.708C102.788 157.677 102.83 157.652 102.874 157.634L104.371 157.032Z" fill="#07122B"/>
<path fill-rule="evenodd" clip-rule="evenodd" d="M102.76 164.171C103.028 163.964 103.472 163.941 103.778 164.125L104.723 164.692C104.96 164.834 105.056 165.068 104.967 165.283L104.649 166.05L104.654 166.423C104.658 166.723 104.337 166.971 103.93 166.982L103.286 167C102.961 167.009 102.666 166.863 102.553 166.639L102.122 165.786C102.097 165.735 102.081 165.682 102.077 165.628L102.002 164.76C101.975 164.454 102.29 164.191 102.704 164.172C102.723 164.171 102.741 164.171 102.76 164.171Z" fill="#07122B"/>
<path fill-rule="evenodd" clip-rule="evenodd" d="M107.504 164.013C107.642 163.972 107.793 164.032 107.842 164.147L107.985 164.481C108.017 164.556 107.998 164.64 107.935 164.7L107.7 164.924C107.65 164.972 107.578 164.999 107.503 165C107.427 165 107.354 164.974 107.304 164.927L107.125 164.761C107.08 164.72 107.056 164.665 107.057 164.609L107.061 164.453L107.025 164.389C106.963 164.278 107.02 164.147 107.152 164.096C107.226 164.067 107.307 164.069 107.375 164.095C107.405 164.058 107.45 164.029 107.504 164.013Z" fill="#07122B"/>
<path fill-rule="evenodd" clip-rule="evenodd" d="M94.4437 157.142C94.6418 156.987 94.9415 156.955 95.1818 157.064L96.6793 157.744C96.9807 157.881 97.0889 158.191 96.9208 158.436C96.7527 158.681 96.372 158.769 96.0705 158.632L94.9777 158.137L94.0587 158.858C93.8102 159.053 93.4146 159.047 93.175 158.844C92.9355 158.642 92.9427 158.32 93.1912 158.125L94.4437 157.142Z" fill="#07122B"/>
<path fill-rule="evenodd" clip-rule="evenodd" d="M100.788 147.083C100.938 147.18 101.019 147.348 100.996 147.517L100.716 149.649L100.567 151.326C100.562 151.374 100.55 151.421 100.53 151.465L99.9701 152.716C99.8867 152.902 99.6834 153.017 99.468 152.998L99.1236 152.968C98.8514 152.945 98.6511 152.721 98.6761 152.467C98.7007 152.219 98.9318 152.035 99.1966 152.049L99.5869 151.177L99.7308 149.563C99.7314 149.557 99.732 149.551 99.7328 149.545L99.9001 148.272L98.3489 149.019C98.3396 149.023 98.3302 149.027 98.3206 149.031L96.9921 149.575L95.7507 150.273C95.5167 150.405 95.2126 150.335 95.0713 150.117C94.93 149.899 95.0052 149.615 95.2392 149.483L96.5081 148.769C96.5264 148.759 96.5454 148.75 96.565 148.742L97.9086 148.192L100.278 147.051C100.441 146.973 100.637 146.985 100.788 147.083Z" fill="#07122B"/>
<path fill-rule="evenodd" clip-rule="evenodd" d="M84.1212 149.127C84.2284 149.012 84.3853 148.971 84.5291 149.02L86.3476 149.639C86.3692 149.647 86.3902 149.656 86.4103 149.667L87.734 150.398C87.7792 150.423 87.8197 150.456 87.8534 150.497L88.5519 151.348C88.6199 151.341 88.6905 151.352 88.7575 151.384C88.9631 151.482 89.056 151.743 88.9651 151.966L88.8902 152.149C88.8342 152.286 88.7177 152.383 88.5809 152.406C88.4441 152.43 88.3058 152.376 88.2138 152.264L87.2961 151.146L86.0712 150.47L85.017 150.111L85.4368 151.631C85.4494 151.676 85.4551 151.724 85.4537 151.771L85.3971 153.676L85.8493 155.441C85.9095 155.676 85.7827 155.919 85.5661 155.984C85.3495 156.049 85.1251 155.912 85.065 155.677L84.5961 153.848C84.5851 153.805 84.5801 153.76 84.5815 153.715L84.6379 151.815L84.0171 149.567C83.9739 149.411 84.014 149.242 84.1212 149.127Z" fill="#07122B"/>
<path fill-rule="evenodd" clip-rule="evenodd" d="M98.9485 150.167C99.0259 150.367 99.0148 150.666 98.9235 150.835L98.3568 151.887C98.2656 152.057 98.1289 152.032 98.0515 151.833C97.9741 151.633 97.9852 151.334 98.0765 151.165L98.6432 150.113C98.7344 149.943 98.8711 149.968 98.9485 150.167Z" fill="#07122B"/>
<path fill-rule="evenodd" clip-rule="evenodd" d="M86.0738 151.062C86.1683 150.976 86.3172 150.98 86.4063 151.072L86.9359 151.616C87.025 151.707 87.0207 151.852 86.9262 151.938C86.8317 152.024 86.6828 152.02 86.5937 151.928L86.0641 151.384C85.975 151.293 85.9793 151.148 86.0738 151.062Z" fill="#07122B"/>
<path fill-rule="evenodd" clip-rule="evenodd" d="M101.05 171.218C101.147 171.003 101.354 170.936 101.514 171.067L102.838 172.157C102.997 172.288 103.048 172.568 102.95 172.782C102.853 172.997 102.646 173.064 102.486 172.933L101.162 171.843C101.003 171.712 100.952 171.432 101.05 171.218Z" fill="#07122B"/>
<path fill-rule="evenodd" clip-rule="evenodd" d="M67.5202 150.001C67.6794 149.992 67.8219 150.069 67.8498 150.178L67.9952 150.747C68.0251 150.864 67.9124 150.976 67.7435 150.997C67.5746 151.017 67.4133 150.939 67.3834 150.822L67.2871 150.445L66.4724 150.489L65.3852 150.675C65.2186 150.703 65.0503 150.633 65.0091 150.517C64.968 150.402 65.0697 150.285 65.2363 150.256L66.3485 150.066C66.3652 150.063 66.3821 150.061 66.3993 150.06L67.5202 150.001Z" fill="#07122B"/>
<path fill-rule="evenodd" clip-rule="evenodd" d="M67.4104 150.005C67.56 149.979 67.7075 150.062 67.7727 150.207L67.9668 150.641C68.0193 150.758 68.009 150.897 67.9399 151.004C67.9277 151.023 67.9141 151.04 67.8992 151.056C67.9025 151.098 67.8988 151.142 67.8871 151.186C67.8462 151.339 67.7193 151.441 67.5782 151.449C67.5304 151.527 67.4554 151.584 67.3664 151.606L65.737 151.991C65.6106 152.021 65.4844 151.972 65.4046 151.874C65.2914 151.897 65.1706 151.858 65.0882 151.761C64.9657 151.616 64.9715 151.395 65.1012 151.258L65.1881 151.166C65.1696 151.089 65.1752 151.004 65.2084 150.926L65.3546 150.584C65.4328 150.401 65.6355 150.321 65.8072 150.404C65.8278 150.414 65.847 150.426 65.8648 150.439C65.9035 150.448 65.9412 150.465 65.9759 150.488L65.9773 150.487C66.0134 150.431 66.0645 150.385 66.1261 150.357L66.1658 150.322C66.2435 150.254 66.3428 150.227 66.4375 150.243L66.7724 150.123C66.8061 150.11 66.8413 150.104 66.8768 150.103L67.0572 150.1C67.1074 150.1 67.1564 150.111 67.2011 150.132C67.2528 150.065 67.3263 150.019 67.4104 150.005Z" fill="#07122B"/>
<path d="M61.314 183.87L61.8876 183.449L62.4981 184L63.2616 182.781L63.8527 181.532L64 180.181L62.6105 180.069L61.248 180L61 180.01L61.2442 181.917L61.314 183.87Z" fill="#07122B"/>
<path d="M93.1212 185L92.7765 184.199L91.9621 184.918L91.9148 183.55L91.447 182.189L90.8087 180.873L90 179.618L91.8561 179.214L93.7159 179L95 179.853L94.8125 181.204L94.447 182.538L93.8163 183.831L93.1212 185Z" fill="#07122B"/>
<path fill-rule="evenodd" clip-rule="evenodd" d="M79.8646 150.049C79.9849 150.166 80.0342 150.453 79.9748 150.689L79.4608 152.734C79.4014 152.97 79.2557 153.067 79.1354 152.951C79.0151 152.834 78.9658 152.547 79.0252 152.311L79.5392 150.266C79.5986 150.03 79.7443 149.933 79.8646 150.049Z" fill="#07122B"/>
<path fill-rule="evenodd" clip-rule="evenodd" d="M50.8171 156.002C51.0964 156.025 51.301 156.24 51.274 156.481L51.0373 158.6L51.0979 158.714L52.1084 158.729C52.1949 158.73 52.2796 158.751 52.3545 158.788L52.6208 158.922C52.7562 158.99 52.8479 159.108 52.8692 159.242C52.8905 159.376 52.839 159.511 52.7297 159.608L52.498 159.813C52.4275 159.876 52.337 159.919 52.2381 159.937L51.169 160.13C51.1303 160.137 51.0916 160.14 51.0534 160.139L51.0248 160.843L52.1377 161.618L53.6812 162.153C53.9416 162.244 54.0679 162.5 53.9632 162.725C53.8586 162.95 53.5627 163.059 53.3023 162.968L51.6886 162.408C51.6419 162.392 51.5983 162.37 51.5592 162.343L50.1893 161.389C50.0647 161.302 49.9947 161.17 50.0003 161.032L50.0775 159.13C50.0798 159.074 50.0938 159.022 50.1175 158.974L50.0569 158.86C50.0192 158.79 50.0039 158.712 50.0125 158.634L50.2625 156.397C50.2895 156.156 50.5378 155.979 50.8171 156.002Z" fill="#07122B"/>
<path fill-rule="evenodd" clip-rule="evenodd" d="M138.203 80.0023C138.231 79.9993 138.259 79.9992 138.286 80.002L139.886 80.1635L141.484 80.0303C141.507 80.0284 141.53 80.0284 141.552 80.0304L143.15 80.1676L144.749 80.0122C144.768 80.0103 144.787 80.0098 144.806 80.0107L146.434 80.0868L148.061 80.0991L149.682 80.0848L149.689 80.0847L151.317 80.0394C151.329 80.039 151.342 80.0393 151.354 80.0401L152.98 80.1489L154.582 80.1793L156.193 80.0205C156.215 80.0184 156.236 80.018 156.257 80.0193L157.88 80.1197L159.502 80.1156C159.51 80.1156 159.518 80.1158 159.526 80.1163L161.147 80.2125L162.76 80.1922L162.768 80.1921L164.395 80.1406C164.406 80.1402 164.418 80.1404 164.429 80.141L166.057 80.2294L167.673 80.2621L169.298 80.1944C169.307 80.194 169.317 80.194 169.326 80.1943L170.943 80.2433L172.564 80.1595C172.576 80.1589 172.587 80.1588 172.599 80.1593L174.234 80.2212C174.237 80.2213 174.24 80.2214 174.243 80.2216L175.859 80.3156L177.478 80.2706C177.485 80.2704 177.492 80.2704 177.499 80.2706L179.134 80.3099C179.138 80.31 179.143 80.3102 179.147 80.3104L180.762 80.4023L182.381 80.3492C182.386 80.349 182.39 80.349 182.395 80.349L184.03 80.351C184.04 80.3511 184.051 80.3515 184.061 80.3523L185.675 80.4808L187.292 80.4523C187.299 80.4522 187.306 80.4522 187.313 80.4525L188.946 80.5103L188.952 80.5105L190.577 80.5906L192.203 80.5926L193.838 80.5968C193.846 80.5968 193.853 80.597 193.86 80.5974L195.496 80.6904L197.116 80.7846L200.373 80.7682C200.38 80.7682 200.386 80.7683 200.393 80.7686L202.028 80.8387C202.032 80.8389 202.037 80.8392 202.041 80.8396L203.662 80.9646L205.284 80.9871L205.288 80.9872L206.923 81.0264C206.931 81.0266 206.939 81.027 206.946 81.0277L208.578 81.1619C208.828 81.1825 209.017 81.4298 208.999 81.7141C208.981 81.9985 208.763 82.2123 208.512 82.1917L206.892 82.0584L205.273 82.0195L205.269 82.0195L203.638 81.9968C203.629 81.9967 203.621 81.9963 203.613 81.9957L201.986 81.8702L200.368 81.8008L197.107 81.8172C197.099 81.8172 197.09 81.817 197.082 81.8165L193.825 81.6293L190.567 81.6231C190.562 81.6231 190.558 81.623 190.554 81.6229L190.548 81.6226L188.918 81.5423L188.913 81.5421L187.296 81.4849L185.669 81.5136C185.656 81.5138 185.643 81.5134 185.63 81.5124L184.013 81.3836L182.4 81.3815L180.771 81.435C180.759 81.4354 180.747 81.4352 180.735 81.4345L179.108 81.342L177.49 81.3031L175.864 81.3483C175.852 81.3486 175.841 81.3484 175.829 81.3478L174.204 81.2532L174.196 81.2528L172.587 81.1919L170.968 81.2756C170.957 81.2762 170.946 81.2763 170.935 81.276L169.317 81.2269L167.694 81.2944C167.686 81.2948 167.678 81.2949 167.669 81.2947L166.034 81.2616C166.03 81.2615 166.025 81.2614 166.021 81.2611L164.403 81.1733L162.785 81.2244L162.781 81.2245L162.778 81.2245L161.143 81.2451C161.133 81.2453 161.123 81.245 161.114 81.2445L159.491 81.1482L157.869 81.1523C157.86 81.1523 157.851 81.152 157.843 81.1515L156.24 81.0523L154.637 81.2102C154.621 81.2118 154.606 81.2124 154.59 81.2121L152.955 81.1811C152.949 81.181 152.942 81.1807 152.936 81.1803L151.32 81.0721L149.704 81.117C149.701 81.1171 149.699 81.1171 149.696 81.1172L148.061 81.1316L148.055 81.1316L146.42 81.1192C146.414 81.1192 146.409 81.119 146.404 81.1188L144.798 81.0437L143.192 81.1999C143.167 81.2023 143.143 81.2024 143.118 81.2003L141.517 81.0628L139.916 81.1963C139.892 81.1983 139.867 81.1981 139.842 81.1957L138.247 81.0347L136.656 81.2057C136.628 81.2087 136.601 81.2088 136.573 81.2061L134.976 81.0489L133.382 81.2061C133.359 81.2084 133.336 81.2086 133.313 81.2069L131.704 81.0872L130.097 81.1927L130.093 81.1929L128.46 81.2838C128.442 81.2849 128.423 81.2846 128.405 81.2831L126.806 81.152L125.211 81.3234C125.186 81.3262 125.16 81.3265 125.135 81.3244L123.52 81.1899L121.906 81.2306L121.903 81.2307L120.268 81.2575L120.262 81.2576L118.634 81.2596L118.627 81.2596L116.999 81.2906L116.993 81.2906L115.365 81.2988L113.742 81.3603L113.736 81.3605L112.109 81.445C112.105 81.4452 112.101 81.4454 112.097 81.4454L110.462 81.4805C110.456 81.4806 110.451 81.4807 110.446 81.4806L108.824 81.4519L107.206 81.546C107.194 81.5468 107.181 81.5469 107.169 81.5465L105.539 81.4889L103.922 81.4909L102.298 81.5771C102.294 81.5773 102.29 81.5775 102.286 81.5776L100.665 81.6165L99.0439 81.7539C99.0379 81.7544 99.0318 81.7547 99.0257 81.755L97.3907 81.819C97.3891 81.819 97.3875 81.8191 97.3858 81.8191L97.3827 81.8192L95.7512 81.8501L95.7477 81.8502L94.1181 81.8955L92.4879 81.9408L90.8577 82.0252C90.8496 82.0257 90.8415 82.0258 90.8334 82.0258L89.2083 82.0114L87.5832 82.0771C87.5729 82.0775 87.5626 82.0775 87.5523 82.0771L85.9492 82.0185L84.3532 82.2288C84.3245 82.2326 84.2957 82.2333 84.2669 82.2309L82.6697 82.0962L81.0832 82.3053C81.0609 82.3082 81.0384 82.3093 81.016 82.3084L79.3885 82.249L77.7867 82.2793L76.1791 82.4871C76.1539 82.4903 76.1286 82.4912 76.1033 82.4897L74.4984 82.3926L72.9006 82.5645C72.8892 82.5658 72.8777 82.5665 72.8662 82.5667L71.2312 82.6018C71.2268 82.6019 71.2224 82.602 71.218 82.6019L69.617 82.5838L68.0265 82.8504C67.9998 82.8549 67.9728 82.8566 67.9458 82.8557L66.3272 82.7986L64.714 82.9026C64.7023 82.9033 64.6907 82.9036 64.679 82.9033L63.0584 82.8666L61.4592 82.9739L59.8437 83.197C59.8224 83.2 59.801 83.2012 59.7795 83.2007L58.1711 83.1642L56.5699 83.3549C56.5601 83.3561 56.5504 83.3569 56.5406 83.3574L54.9074 83.4317L54.9008 83.4319L53.2658 83.4794C53.2584 83.4796 53.251 83.4796 53.2436 83.4794L51.6409 83.437L50.0489 83.6814C50.0278 83.6846 50.0066 83.6862 49.9853 83.6861L48.3505 83.6757L46.734 83.6819L45.1247 83.8348L45.1227 83.835L43.4952 83.998C43.2448 84.023 43.0239 83.8131 43.0018 83.5291C42.9797 83.2451 43.1648 82.9945 43.4152 82.9694L45.0467 82.8061L46.6762 82.6512C46.6884 82.6501 46.7005 82.6495 46.7127 82.6494L48.3495 82.6432L48.3536 82.6432L49.9584 82.6534L51.5545 82.4084C51.5782 82.4047 51.6022 82.4032 51.6262 82.4038L53.2537 82.4469L54.8742 82.3998L56.4894 82.3263L58.1043 82.1339C58.1231 82.1317 58.142 82.1308 58.161 82.1312L59.7656 82.1677L61.3631 81.947C61.3725 81.9457 61.3819 81.9447 61.3913 81.9441L63.0226 81.8346C63.0346 81.8338 63.0466 81.8336 63.0586 81.8338L64.6797 81.8706L66.2955 81.7664C66.3088 81.7655 66.3221 81.7654 66.3355 81.7658L67.9335 81.8222L69.5192 81.5564C69.5428 81.5525 69.5665 81.5506 69.5903 81.5509L71.2206 81.5694L72.8318 81.5348L74.4459 81.3611C74.4683 81.3587 74.4908 81.3581 74.5132 81.3595L76.1138 81.4563L77.7055 81.2506C77.7201 81.2487 77.7348 81.2476 77.7495 81.2473L79.3844 81.2164C79.3919 81.2162 79.3993 81.2163 79.4067 81.2166L81.0116 81.2752L82.6077 81.0649C82.6363 81.0611 82.6652 81.0604 82.694 81.0628L84.2912 81.1975L85.8776 80.9885C85.8999 80.9855 85.9224 80.9845 85.9448 80.9853L87.5662 81.0446L89.1857 80.9792C89.1923 80.9789 89.1989 80.9788 89.2055 80.9788L90.8283 80.9932L92.4512 80.9091C92.4544 80.909 92.4576 80.9088 92.4608 80.9088L95.7289 80.8179L95.7324 80.8178L97.3593 80.7871L97.3674 80.7868L98.9852 80.7234L100.609 80.5858C100.617 80.5851 100.625 80.5847 100.634 80.5845L102.261 80.5454L103.89 80.459C103.897 80.4586 103.904 80.4584 103.911 80.4584L105.546 80.4564C105.551 80.4564 105.556 80.4564 105.56 80.4566L107.179 80.5138L108.793 80.4198C108.803 80.4192 108.813 80.419 108.823 80.4192L110.452 80.448L112.073 80.4132L113.7 80.3288L113.706 80.3286L115.341 80.2666C115.345 80.2665 115.35 80.2664 115.354 80.2664L116.984 80.2582L116.989 80.2581L118.619 80.2272C118.621 80.2272 118.623 80.2271 118.626 80.2271L120.255 80.2251L120.261 80.2251L121.886 80.1984L121.89 80.1983L123.521 80.1571C123.535 80.1567 123.55 80.1571 123.564 80.1583L125.163 80.2914L126.758 80.12C126.783 80.1173 126.809 80.1169 126.834 80.119L128.443 80.251L130.045 80.1619L130.049 80.1616L131.68 80.0546C131.698 80.0533 131.717 80.0534 131.736 80.0548L133.338 80.174L134.937 80.0164C134.963 80.0138 134.989 80.0138 135.015 80.0164L136.611 80.1734L138.203 80.0023Z" fill="#07122B"/>
<path fill-rule="evenodd" clip-rule="evenodd" d="M205.149 79.1321C205.353 78.9611 205.691 78.9554 205.904 79.1192L207.091 80.0318C207.117 80.0521 207.141 80.0747 207.162 80.099L208.092 81.1881C208.1 81.1976 208.108 81.2073 208.115 81.2173L208.929 82.358C209.076 82.5634 208.987 82.8255 208.731 82.9432C208.475 83.0609 208.148 82.9898 208.002 82.7843L207.198 81.6586L206.311 80.6202L205.165 79.7384C204.952 79.5745 204.944 79.303 205.149 79.1321Z" fill="#07122B"/>
<path fill-rule="evenodd" clip-rule="evenodd" d="M208.861 82.1818C209.058 82.4099 209.044 82.764 208.828 82.9727L207.505 84.2557L207.501 84.2604L206.17 85.5191L204.898 86.84C204.69 87.0564 204.355 87.0529 204.151 86.8321C203.947 86.6113 203.95 86.2569 204.158 86.0404L205.439 84.7104C205.445 84.7043 205.451 84.6984 205.457 84.6926L206.794 83.4276L208.115 82.1469C208.33 81.9381 208.664 81.9538 208.861 82.1818Z" fill="#07122B"/>
<path fill-rule="evenodd" clip-rule="evenodd" d="M67.5505 79.0016C67.738 78.9789 67.9017 79.2022 67.9159 79.5002L67.999 81.2366C68 81.2574 68.0003 81.2783 67.9997 81.2992L67.9561 83.0377L67.9559 83.0445L67.8987 84.7809C67.8978 84.8075 67.8957 84.8341 67.8924 84.8603L67.6744 86.5663C67.637 86.8593 67.4572 87.0486 67.2729 86.9891C67.0885 86.9296 66.9694 86.6439 67.0069 86.3509L67.2198 84.6842L67.2756 82.9913L67.3183 81.2874L67.2367 79.5823C67.2225 79.2843 67.3629 79.0243 67.5505 79.0016Z" fill="#07122B"/>
<path fill-rule="evenodd" clip-rule="evenodd" d="M56.5172 72.0046C56.7709 72.0339 56.9694 72.2005 57.0017 72.4111L57.3075 74.4078L57.4795 75.077L57.5506 74.9674C57.5572 74.9571 57.5644 74.947 57.572 74.9371L58.5 73.7315L59.3781 72.541C59.5095 72.3628 59.7672 72.2778 60.0106 72.3323C60.254 72.3868 60.4248 72.5678 60.4299 72.7767L60.4656 74.2378L60.6897 75.7081L60.992 77.1899C61.0442 77.446 60.836 77.6886 60.5269 77.7319C60.2178 77.7752 59.9249 77.6027 59.8726 77.3466L59.5684 75.8551C59.5671 75.8487 59.5659 75.8422 59.5649 75.8357L59.3437 74.3845L58.5406 75.4279L57.7469 76.6519C57.6342 76.8257 57.4025 76.9228 57.1668 76.8949C56.931 76.8671 56.7413 76.7203 56.6917 76.5274L56.1922 74.5844C56.1889 74.5716 56.1863 74.5587 56.1843 74.5457L56.1387 74.2479L56.1288 74.2669L55.6204 75.9332L55.1193 77.6408C55.0452 77.8931 54.7383 78.0479 54.4336 77.9866C54.129 77.9252 53.9421 77.6709 54.0162 77.4186L54.518 75.7089L54.5192 75.7048L55.0391 74.0007C55.0464 73.977 55.0559 73.9537 55.0675 73.9312L55.9167 72.2854C56.0174 72.0903 56.2634 71.9752 56.5172 72.0046Z" fill="#07122B"/>
<path fill-rule="evenodd" clip-rule="evenodd" d="M63.8005 72.0063C64.0477 72.0414 64.2363 72.2176 64.2592 72.4347L64.4301 74.0547L64.8175 75.7152C64.8217 75.733 64.8247 75.7509 64.8265 75.7689L64.9979 77.4799C65.0243 77.7432 64.8006 77.9752 64.4983 77.9982C64.196 78.0211 63.9296 77.8263 63.9032 77.5631L63.7345 75.8791L63.3762 74.3434L62.7677 75.619L62.0587 77.1406C61.9446 77.3855 61.6242 77.5034 61.343 77.4041C61.0618 77.3047 60.9264 77.0257 61.0405 76.7808L61.7503 75.2574L61.752 75.2538L62.4751 73.738C62.4765 73.7349 62.4781 73.7318 62.4796 73.7287L63.2093 72.2857C63.3102 72.0861 63.5533 71.9712 63.8005 72.0063Z" fill="#07122B"/>
<path fill-rule="evenodd" clip-rule="evenodd" d="M62.001 75.445C62.021 75.1858 62.3417 74.9869 62.7174 75.0007L64.355 75.0608C64.7307 75.0746 65.019 75.2959 64.999 75.555C64.979 75.8142 64.6583 76.0131 64.2826 75.9993L62.645 75.9392C62.2693 75.9254 61.981 75.7041 62.001 75.445Z" fill="#07122B"/>
<path fill-rule="evenodd" clip-rule="evenodd" d="M67.768 72.0697C67.9833 72.221 68.063 72.5696 67.9462 72.8484L67.2667 74.4688L66.6507 76.1326C66.6411 76.1583 66.6302 76.1831 66.6178 76.2067L65.8106 77.748C65.6731 78.0105 65.3974 78.079 65.1946 77.901C64.9919 77.723 64.939 77.3659 65.0765 77.1034L65.8651 75.5975L66.4717 73.9593C66.4749 73.9506 66.4783 73.942 66.4819 73.9335L67.1666 72.3004C67.2835 72.0216 67.5528 71.9184 67.768 72.0697Z" fill="#07122B"/>
<path fill-rule="evenodd" clip-rule="evenodd" d="M65.2485 72.0217C65.4399 71.9495 65.6478 72.0634 65.7127 72.276L66.2073 73.8953L66.9543 75.3969C67.052 75.5934 66.9879 75.8407 66.8109 75.9492C66.634 76.0578 66.4113 75.9865 66.3136 75.79L65.5508 74.2568C65.5403 74.2357 65.5315 74.2136 65.5246 74.1908L65.0195 72.5372C64.9546 72.3246 65.0571 72.0938 65.2485 72.0217Z" fill="#07122B"/>
<path fill-rule="evenodd" clip-rule="evenodd" d="M107.549 79.0016C107.736 78.9786 107.9 79.2015 107.915 79.4996L107.999 81.2359C108 81.257 108 81.2781 108 81.2992L107.956 83.0377L107.956 83.0445L107.899 84.7809C107.898 84.8075 107.896 84.8341 107.892 84.8603L107.674 86.5663C107.637 86.8593 107.457 87.0486 107.273 86.9891C107.089 86.9296 106.969 86.6439 107.007 86.3509L107.22 84.6842L107.276 82.9913L107.318 81.2878L107.235 79.583C107.221 79.285 107.361 79.0247 107.549 79.0016Z" fill="#07122B"/>
<path fill-rule="evenodd" clip-rule="evenodd" d="M144.097 79.0016C144.472 78.9786 144.8 79.2015 144.829 79.4996L144.998 81.2359C145 81.257 145.001 81.2781 144.999 81.2992L144.912 83.0377L144.912 83.0445L144.797 84.7809C144.796 84.8075 144.791 84.8341 144.785 84.8603L144.349 86.5663C144.274 86.8593 143.914 87.0486 143.546 86.9891C143.177 86.9296 142.939 86.6439 143.014 86.3509L143.44 84.6842L143.551 82.9913L143.637 81.2878L143.471 79.583C143.442 79.285 143.722 79.0247 144.097 79.0016Z" fill="#07122B"/>
<path fill-rule="evenodd" clip-rule="evenodd" d="M179.549 79.0016C179.736 78.9786 179.9 79.2015 179.915 79.4996L179.999 81.2359C180 81.257 180 81.2781 180 81.2992L179.956 83.0377L179.956 83.0445L179.899 84.7809C179.898 84.8075 179.896 84.8341 179.892 84.8603L179.674 86.5663C179.637 86.8593 179.457 87.0486 179.273 86.9891C179.089 86.9296 178.969 86.6439 179.007 86.3509L179.22 84.6842L179.276 82.9913L179.318 81.2878L179.235 79.583C179.221 79.285 179.361 79.0247 179.549 79.0016Z" fill="#07122B"/>
<path fill-rule="evenodd" clip-rule="evenodd" d="M171.1 72.0063C171.286 72.0414 171.427 72.2176 171.444 72.4347L171.573 74.0547L171.863 75.7152C171.866 75.733 171.868 75.7509 171.87 75.7689L171.998 77.4799C172.018 77.7432 171.85 77.9752 171.624 77.9982C171.397 78.0211 171.197 77.8263 171.177 77.5631L171.051 75.8791L170.782 74.3434L170.326 75.619L169.794 77.1406C169.708 77.3855 169.468 77.5034 169.257 77.4041C169.046 77.3047 168.945 77.0257 169.03 76.7808L169.563 75.2574L169.564 75.2538L170.106 73.738C170.107 73.7349 170.109 73.7318 170.11 73.7287L170.657 72.2857C170.733 72.0861 170.915 71.9712 171.1 72.0063Z" fill="#07122B"/>
<path fill-rule="evenodd" clip-rule="evenodd" d="M170.001 75.445C170.014 75.1858 170.228 74.9869 170.478 75.0007L171.57 75.0608C171.82 75.0746 172.013 75.2959 171.999 75.555C171.986 75.8142 171.772 76.0131 171.522 75.9993L170.43 75.9392C170.18 75.9254 169.987 75.7041 170.001 75.445Z" fill="#07122B"/>
<path fill-rule="evenodd" clip-rule="evenodd" d="M97.4708 72.0001C97.7413 71.9961 97.9642 72.1889 97.9686 72.4305L97.9999 74.1615C98.0003 74.1816 97.9991 74.2017 97.9964 74.2217L97.7612 75.9388C97.7555 75.9805 97.743 76.0214 97.7242 76.06L96.9971 77.5547C96.9345 77.6836 96.8063 77.7778 96.6526 77.8078L95.7216 77.9899C95.5569 78.0221 95.3852 77.9764 95.2671 77.8689L94.1402 76.8432C93.9507 76.6707 93.9537 76.3937 94.1468 76.2244C94.34 76.0551 94.6502 76.0578 94.8397 76.2303L95.7768 77.0832L96.1982 77.0008L96.7972 75.7695L97.0196 74.1455L96.9888 72.4447C96.9844 72.203 97.2002 72.004 97.4708 72.0001Z" fill="#07122B"/>
<path fill-rule="evenodd" clip-rule="evenodd" d="M99.5999 72.0016C99.8438 72.0241 100.027 72.2868 100.008 72.5883L99.8866 74.6011L99.9678 76.5205L100.078 76.8387L100.317 76.787L101.143 75.7874L101.585 74.3108C101.587 74.306 101.588 74.3013 101.59 74.2965L102.146 72.5863C102.237 72.3058 102.495 72.1698 102.722 72.2826C102.949 72.3954 103.059 72.7142 102.968 72.9948L102.414 74.6979L101.94 76.2826C101.917 76.3585 101.881 76.4273 101.834 76.4839L100.838 77.6883C100.775 77.7656 100.693 77.8172 100.605 77.8363L99.8859 77.9918C99.6836 78.0355 99.4836 77.9017 99.4026 77.6685L99.1227 76.8626C99.1021 76.8032 99.0901 76.7398 99.0874 76.6752L99.0006 74.6235C98.9996 74.6003 98.9998 74.5771 99.0012 74.554L99.1252 72.5066C99.1435 72.2051 99.356 71.979 99.5999 72.0016Z" fill="#07122B"/>
<path fill-rule="evenodd" clip-rule="evenodd" d="M134.471 72.0001C134.741 71.9961 134.964 72.1889 134.969 72.4305L135 74.1615C135 74.1816 134.999 74.2017 134.996 74.2217L134.761 75.9388C134.755 75.9805 134.743 76.0214 134.724 76.06L133.997 77.5547C133.934 77.6837 133.806 77.7779 133.652 77.8079L132.72 77.9899C132.555 78.0221 132.383 77.9762 132.265 77.8686L131.14 76.8429C130.951 76.6703 130.954 76.3932 131.147 76.2241C131.34 76.055 131.651 76.0579 131.84 76.2305L132.775 77.0832L133.198 77.0007L133.797 75.7695L134.02 74.1455L133.989 72.4447C133.984 72.203 134.2 72.004 134.471 72.0001Z" fill="#07122B"/>
<path fill-rule="evenodd" clip-rule="evenodd" d="M136.75 72.0016C137.055 72.0241 137.284 72.2868 137.261 72.5883L137.109 74.6011L137.21 76.5205L137.348 76.8387L137.647 76.787L138.68 75.7876L139.231 74.3114C139.233 74.3064 139.235 74.3015 139.237 74.2965L139.932 72.5863C140.046 72.3058 140.369 72.1698 140.653 72.2826C140.936 72.3954 141.074 72.7142 140.96 72.9948L140.267 74.6976L139.676 76.282C139.648 76.3582 139.603 76.4271 139.544 76.4839L138.299 77.6883C138.219 77.7656 138.117 77.8172 138.007 77.8363L137.108 77.9918C136.855 78.0355 136.605 77.9017 136.503 77.6685L136.153 76.8626C136.128 76.8032 136.113 76.7398 136.109 76.6752L136.001 74.6235C136 74.6003 136 74.5771 136.002 74.554L136.157 72.5066C136.179 72.2051 136.445 71.979 136.75 72.0016Z" fill="#07122B"/>
<path fill-rule="evenodd" clip-rule="evenodd" d="M172.6 72.0016C172.844 72.0241 173.027 72.2868 173.009 72.5883L172.887 74.6011L172.968 76.5205L173.079 76.8387L173.318 76.787L174.144 75.7874L174.587 74.3108C174.588 74.3062 174.589 74.3016 174.591 74.2971L175.146 72.5869C175.237 72.3063 175.495 72.1699 175.722 72.2824C175.949 72.3949 176.059 72.7136 175.968 72.9942L175.416 74.6976L174.941 76.2826C174.918 76.3585 174.882 76.4273 174.835 76.4839L173.839 77.6883C173.775 77.7656 173.694 77.8172 173.606 77.8363L172.886 77.9918C172.684 78.0355 172.484 77.9017 172.403 77.6685L172.123 76.8626C172.102 76.8032 172.09 76.7398 172.087 76.6752L172.001 74.6235C172 74.6003 172 74.5771 172.001 74.554L172.125 72.5066C172.144 72.2051 172.356 71.979 172.6 72.0016Z" fill="#07122B"/>
<path fill-rule="evenodd" clip-rule="evenodd" d="M107.535 72.0022C107.817 72.028 108.024 72.2688 107.998 72.5402L107.844 74.1019C107.843 74.11 107.842 74.1181 107.841 74.1262L107.606 75.6779C107.605 75.6858 107.604 75.6935 107.602 75.7013L107.3 77.1939C107.257 77.4075 107.073 77.5688 106.848 77.5907C106.623 77.6127 106.409 77.4902 106.322 77.2892L105.706 75.8653L104.863 74.5122L104.606 74.1476L104.537 74.5272C104.536 74.5351 104.534 74.5429 104.532 74.5507L104.184 76.0378L104.025 77.5559C103.996 77.8271 103.744 78.0248 103.462 77.9975C103.18 77.9701 102.974 77.7281 103.003 77.4569L103.165 75.909C103.167 75.8892 103.17 75.8695 103.175 75.8501L103.528 74.3455L103.813 72.7759C103.849 72.5778 104.006 72.4205 104.211 72.3783C104.416 72.3361 104.626 72.4174 104.744 72.5838L105.722 73.9698C105.727 73.9775 105.732 73.9854 105.737 73.9934L106.606 75.3892C106.608 75.3918 106.609 75.3944 106.611 75.397L106.822 73.9966L106.975 72.447C107.002 72.1756 107.253 71.9765 107.535 72.0022Z" fill="#07122B"/>
<path fill-rule="evenodd" clip-rule="evenodd" d="M142.057 72.0031C142.284 72.0332 142.448 72.2793 142.423 72.5527L142.267 74.2479C142.265 74.2698 142.262 74.2915 142.258 74.3128L141.926 75.9233L141.86 76.9983L142.978 77.004L144.572 76.9406C144.801 76.9314 144.992 77.1469 145 77.4218C145.007 77.6967 144.828 77.9269 144.599 77.936L142.998 77.9997C142.993 77.9999 142.988 78 142.983 78L141.413 77.9921C141.298 77.9915 141.188 77.9336 141.11 77.8323C141.032 77.7309 140.993 77.5952 141.001 77.4575L141.102 75.8081C141.104 75.7801 141.108 75.7523 141.113 75.7251L141.446 74.1058L141.599 72.4434C141.624 72.17 141.829 71.9729 142.057 72.0031Z" fill="#07122B"/>
<path fill-rule="evenodd" clip-rule="evenodd" d="M178.412 72.0749C178.513 72.0166 178.63 71.9913 178.747 72.0026L180.435 72.1664C180.74 72.196 180.963 72.4632 180.933 72.7632C180.903 73.0632 180.631 73.2824 180.326 73.2528L178.817 73.1065L177.671 73.767L177.143 74.9668L177.501 76.2203L178.64 76.8827L179.965 76.6632L180.636 75.9449L178.828 75.6268C178.526 75.5737 178.325 75.2901 178.379 74.9933C178.433 74.6966 178.722 74.4991 179.023 74.5522L181.158 74.9277C181.269 74.9473 181.372 74.9997 181.452 75.0779L181.836 75.4535C182.031 75.6443 182.055 75.947 181.891 76.1648L181.716 76.3984C181.704 76.4141 181.692 76.4291 181.678 76.4434L180.654 77.5395C180.571 77.6289 180.459 77.6884 180.337 77.7085L178.625 77.9924C178.495 78.0138 178.363 77.9896 178.25 77.924L176.744 77.0484C176.62 76.9769 176.53 76.8614 176.492 76.726L176.021 75.0753C175.986 74.9548 175.995 74.8263 176.046 74.7115L176.723 73.17C176.77 73.0633 176.85 72.9742 176.952 72.9155L178.412 72.0749Z" fill="#07122B"/>
<path fill-rule="evenodd" clip-rule="evenodd" d="M202.448 60.1713C202.617 59.9596 202.899 59.9418 203.086 60.1309L205.841 62.9176C205.988 63.0659 206.039 63.3059 205.969 63.517C205.962 63.5373 205.954 63.5568 205.946 63.5756C205.968 63.7125 205.945 63.8587 205.874 63.9807C204.865 65.7035 203.475 67.0753 201.851 67.9505C201.621 68.0746 201.348 67.9574 201.242 67.6887C201.135 67.42 201.236 67.1016 201.466 66.9775C202.792 66.263 203.946 65.1835 204.831 63.8354C177.651 62.9604 140.587 63.4547 103.509 63.9988C101.945 64.0218 100.381 64.0448 98.8175 64.0678C63.0076 64.5954 27.5743 65.1174 1.4491 64.4414C1.19551 64.4348 0.994492 64.1896 1.00012 63.8937C1.00574 63.5978 1.21588 63.3633 1.46947 63.3698C27.5781 64.0454 62.9971 63.5236 98.8156 62.996C100.376 62.973 101.936 62.95 103.497 62.9271C140.197 62.3885 176.908 61.8982 204.032 62.738L202.461 60.916C202.286 60.7124 202.28 60.383 202.448 60.1713Z" fill="#07122B"/>
<path d="M65.9621 116.018L66.8082 117.454L67.8149 118.782L69.0661 119.881L70.4209 120.854L71.9738 121.458L73.566 121.945L75.0172 121.963L76.4683 122L77.8999 121.752L79.3296 121.483L80.7629 121.002L82.0749 120.261L83.2458 119.34L84.2222 117.975L84.9362 116.444L85.6145 114.576L85.9786 112.623L86 111.064L85.6394 109.548L85.095 108.092L84.5274 106.645L83.7045 104.982L82.5104 103.56L81.2895 102.17L79.9936 101.237L78.5371 100.57L76.9717 100.258L75.3974 100L73.8141 100.201L72.2719 100.538L70.7494 100.98L69.341 101.88L68.063 102.971L67.2151 104.425L66.3548 105.856L65.7069 107.399L65.3641 109.035L65 110.783L65.1678 112.559L65.4534 114.309L65.9621 116.018Z" fill="#FFD44D"/>
<path fill-rule="evenodd" clip-rule="evenodd" d="M72.1616 101.007C72.2089 100.998 72.2572 100.998 72.3045 101.005L73.8297 101.258C73.8667 101.264 73.9027 101.275 73.937 101.291L75.3467 101.945C75.3864 101.963 75.4233 101.988 75.4562 102.018L76.6176 103.075C76.6384 103.094 76.6575 103.115 76.6746 103.137L77.5544 104.305C77.5634 104.317 77.572 104.329 77.5799 104.342L78.353 105.607C78.3598 105.618 78.3662 105.63 78.3722 105.642L79.0456 106.983C79.0588 107.009 79.0696 107.037 79.0779 107.065L79.5729 108.771C79.5766 108.784 79.5798 108.797 79.5825 108.81L79.9358 110.551C79.9414 110.578 79.9447 110.606 79.9455 110.635L79.9998 112.413C80.0008 112.446 79.9985 112.479 79.993 112.512L79.7079 114.187C79.7052 114.202 79.7019 114.218 79.6979 114.233L79.2571 115.871C79.2551 115.878 79.2529 115.886 79.2506 115.893L78.8238 117.225C78.8165 117.248 78.8076 117.27 78.7971 117.291L78.1797 118.544C78.1548 118.595 78.1215 118.64 78.0814 118.678L76.8641 119.821C76.8257 119.857 76.7818 119.885 76.7342 119.905L75.2317 120.531C75.2212 120.535 75.2106 120.539 75.1998 120.543L73.937 120.952C73.8986 120.964 73.8588 120.971 73.8188 120.972L72.5017 121C72.4908 121 72.4798 121 72.4688 120.999L71.1728 120.923C71.1421 120.921 71.1117 120.916 71.082 120.907L69.6688 120.496C69.618 120.481 69.5701 120.457 69.5275 120.424L68.3398 119.507C68.3233 119.494 68.3077 119.48 68.293 119.465L67.2418 118.385C67.226 118.369 67.2113 118.352 67.198 118.333L66.3042 117.089C66.2769 117.051 66.2553 117.009 66.24 116.964L65.7398 115.49C65.7381 115.485 65.7365 115.48 65.735 115.475L65.2925 114.02C65.2869 114.001 65.2823 113.983 65.2789 113.964L65.0078 112.452C65.0013 112.416 64.9988 112.379 65.0005 112.342L65.0704 110.809L65.1245 109.272C65.1256 109.241 65.1297 109.21 65.1367 109.179L65.504 107.574C65.506 107.566 65.5083 107.557 65.5108 107.548L65.9674 105.964C65.976 105.934 65.9875 105.905 66.0016 105.877L66.7467 104.422C66.7562 104.404 66.7669 104.386 66.7787 104.369L67.7005 103.037C67.7259 103 67.7562 102.968 67.7905 102.94L69.0271 101.954C69.06 101.928 69.0963 101.906 69.1348 101.891L70.5673 101.316C70.5925 101.306 70.6186 101.298 70.6452 101.293L72.1616 101.007ZM72.2423 101.94L70.8371 102.205L69.5007 102.742L68.3654 103.647L67.4997 104.898L66.7902 106.284L66.3504 107.81L65.9967 109.355L65.9442 110.847L65.944 110.852L65.8766 112.331L66.1327 113.759L66.5645 115.179L67.0392 116.578L67.8717 117.736L68.8771 118.769L69.9754 119.617L71.2672 119.993L72.5007 120.066L73.7409 120.039L74.9298 119.654L76.3445 119.065L77.4433 118.033L78.0074 116.888L78.4196 115.602L78.8513 113.997L79.1242 112.393L79.0728 110.707L78.7319 109.028L78.255 107.385L77.6104 106.101L76.8595 104.872L76.019 103.757L74.9386 102.774L73.6403 102.171L72.2423 101.94Z" fill="#07122B"/>
<path fill-rule="evenodd" clip-rule="evenodd" d="M71.5202 99.3916C71.5547 99.143 71.7825 98.9697 72.0291 99.0044L73.6144 99.2281C73.6393 99.2316 73.6639 99.2372 73.6879 99.2449L75.2263 99.7359C75.2675 99.749 75.3066 99.7681 75.3424 99.7924L76.6799 100.702L78.0072 101.612C78.0349 101.63 78.0603 101.652 78.0832 101.677L79.3564 103.05C79.3649 103.059 79.373 103.069 79.3807 103.078L80.5403 104.557C80.5533 104.573 80.5651 104.591 80.5757 104.609L81.5243 106.242C81.5366 106.263 81.5472 106.285 81.5559 106.308L82.124 107.794C82.1292 107.807 82.1338 107.821 82.1376 107.835L82.5597 109.362C82.5619 109.37 82.5639 109.379 82.5656 109.387L82.9029 110.929C82.9081 110.952 82.9114 110.977 82.9128 111.001L82.9993 112.583C83.0016 112.625 82.9982 112.666 82.9893 112.707L82.5547 114.683C82.5519 114.696 82.5485 114.709 82.5446 114.721L81.9404 116.656C81.9328 116.68 81.9233 116.704 81.9118 116.726L81.1345 118.259C81.1268 118.274 81.1182 118.289 81.1089 118.303L80.1693 119.733C80.1415 119.775 80.1068 119.812 80.0667 119.843L78.8638 120.767C78.8499 120.778 78.8353 120.787 78.8202 120.796L77.5038 121.582C77.4717 121.601 77.4375 121.616 77.4018 121.627L75.9356 122.063C75.9275 122.066 75.9194 122.068 75.9112 122.07L74.4675 122.412L73.0542 122.841C73.0256 122.849 72.9963 122.855 72.9666 122.858L71.4932 122.998C71.2453 123.022 71.0254 122.838 71.002 122.588C70.9787 122.338 71.1607 122.116 71.4086 122.093L72.8373 121.957L74.2209 121.537C74.2297 121.535 74.2386 121.532 74.2476 121.53L75.6924 121.188L77.0927 120.771L78.3384 120.028L79.4598 119.166L80.3432 117.823L81.0917 116.347L81.6786 114.467L82.0956 112.571L82.0144 111.088L81.6877 109.595L81.2748 108.1L80.7278 106.669L79.8135 105.096L78.685 103.657L77.4589 102.335L76.1743 101.455L76.1732 101.454L74.892 100.583L73.4519 100.123L71.9042 99.9048C71.6576 99.87 71.4857 99.6403 71.5202 99.3916Z" fill="#07122B"/>
<path fill-rule="evenodd" clip-rule="evenodd" d="M71.6327 107.182C71.7782 107.381 71.7366 107.662 71.5396 107.809L70.2637 108.762L69.3312 109.974L68.9884 111.5L68.8898 113.089L69.2156 114.635L69.9549 116.2L71.2435 117.331L72.7145 118.085L74.2742 117.823L75.5409 116.916L76.145 115.395C76.2363 115.166 76.4945 115.054 76.7218 115.146C76.949 115.239 77.0592 115.5 76.9679 115.73L76.3152 117.372C76.2835 117.452 76.2296 117.521 76.1602 117.571L74.7039 118.614C74.6492 118.654 74.5864 118.68 74.5202 118.691L72.7163 118.994C72.623 119.01 72.5273 118.995 72.4429 118.951L70.7934 118.105C70.761 118.088 70.7308 118.068 70.7033 118.044L69.3039 116.816C69.2579 116.775 69.2207 116.726 69.1945 116.67L68.3927 114.974C68.3777 114.942 68.3664 114.909 68.3591 114.874L68.0097 113.215C68.0013 113.175 67.9983 113.135 68.0009 113.094L68.1055 111.408C68.107 111.384 68.1104 111.361 68.1156 111.337L68.4881 109.678C68.5025 109.614 68.5307 109.554 68.5706 109.502L69.6011 108.163C69.6259 108.131 69.655 108.102 69.6876 108.078L71.0125 107.088C71.2095 106.941 71.4871 106.983 71.6327 107.182Z" fill="#07122B"/>
<path fill-rule="evenodd" clip-rule="evenodd" d="M74.888 109.17C75.0637 109.365 75.0289 109.65 74.8103 109.807L73.4189 110.806L72.106 111.895C72.0975 111.902 72.0888 111.909 72.0799 111.915L70.6785 112.928C70.6656 112.937 70.6521 112.946 70.6382 112.954L69.1578 113.825L67.8483 114.883C67.6403 115.051 67.3193 115.036 67.1312 114.851C66.9431 114.665 66.9592 114.378 67.1672 114.21L68.5056 113.128C68.5248 113.113 68.5454 113.098 68.5671 113.086L70.0593 112.208L71.4279 111.22L72.7414 110.13C72.7503 110.123 72.7594 110.116 72.7688 110.109L74.1742 109.1C74.3928 108.943 74.7124 108.974 74.888 109.17Z" fill="#07122B"/>
<path fill-rule="evenodd" clip-rule="evenodd" d="M75.9022 111.16C76.0623 111.337 76.0216 111.591 75.8112 111.727L74.4399 112.609C74.4309 112.615 74.4216 112.62 74.4121 112.625L72.9845 113.415L71.6289 114.29C71.6162 114.298 71.603 114.306 71.5894 114.313L70.135 115.07L68.7621 115.922C68.5489 116.054 68.2493 116.015 68.0928 115.835C67.9364 115.655 67.9824 115.401 68.1956 115.269L69.5841 114.408C69.5946 114.401 69.6053 114.395 69.6163 114.39L71.0668 113.635L72.4171 112.763C72.4263 112.757 72.4357 112.752 72.4454 112.746L73.8734 111.956L75.2312 111.083C75.4416 110.947 75.742 110.982 75.9022 111.16Z" fill="#07122B"/>
<path fill-rule="evenodd" clip-rule="evenodd" d="M62.106 109C62.1454 109.001 62.1766 109.043 62.1757 109.093L62.1429 110.826L62.2309 112.556L62.5386 114.244L62.9958 115.878C63.0091 115.926 62.9897 115.978 62.9525 115.995C62.9154 116.012 62.8745 115.987 62.8613 115.94L62.4027 114.301C62.4018 114.297 62.401 114.294 62.4004 114.291L62.0904 112.59C62.0895 112.585 62.089 112.58 62.0887 112.575L62.0001 110.834C62 110.832 62 110.829 62 110.826L62.0329 109.089C62.0338 109.039 62.0666 108.999 62.106 109Z" fill="#07122B"/>
<path fill-rule="evenodd" clip-rule="evenodd" d="M61.1196 111.002C61.2013 110.992 61.282 111.021 61.2996 111.068L61.9966 112.896C62.0142 112.942 61.9622 112.988 61.8804 112.998C61.7987 113.008 61.718 112.979 61.7004 112.932L61.0034 111.104C60.9858 111.058 61.0378 111.012 61.1196 111.002Z" fill="#07122B"/>
<path fill-rule="evenodd" clip-rule="evenodd" d="M82.991 122.026C83.0064 122.055 83.0015 122.095 82.9802 122.115L82.0754 122.988C82.0541 123.009 82.0243 123.002 82.009 122.974C81.9936 122.945 81.9985 122.905 82.0198 122.885L82.9246 122.012C82.9459 121.991 82.9757 121.998 82.991 122.026Z" fill="#07122B"/>
</svg>
