<svg width="220" height="215" viewBox="0 0 220 215" fill="none" xmlns="http://www.w3.org/2000/svg">
<g clip-path="url(#clip0)">
<path d="M49 192.219L49.2709 191.234L49.498 190.238L49.8665 189.29L50.1616 188.316L50.5203 187.365L50.8987 186.423L51.2903 185.487L51.6764 184.548L52.1294 183.642L52.5791 182.735L53.0683 181.85L53.4786 180.919L54.0369 180.076L54.525 179.19L55.046 178.326L55.6361 177.509L56.1747 176.658L56.7352 175.819L57.3231 175.003L57.9154 174.188L58.533 173.394L59.2031 172.646L59.8251 171.854L60.5655 171.179L61.24 170.438L61.8883 169.667L62.6002 168.964L63.3702 168.328L64.0623 167.599L64.8323 166.965L65.6264 166.364L66.3646 165.686L67.2147 165.167L67.9858 164.533L68.7822 163.936L69.6564 163.464L70.4779 162.907L71.2995 162.345L72.1803 161.895L73.0523 161.428L73.8991 160.909L74.77 160.437L75.6903 160.078L76.57 159.623L77.4705 159.217L78.3886 158.855L79.3133 158.516L80.2566 158.229L81.1813 157.892L82.0949 157.512L83.0426 157.246L84.0013 157.02L84.9424 156.744L85.8002 157.251L86.6645 157.753L87.5409 158.225L88.3987 158.742L89.3025 159.158L90.1625 159.678L91.0838 160.056L92.0074 160.425L92.8992 160.878L93.8293 161.232L94.7584 161.588L95.6929 161.927L96.6538 162.182L97.5773 162.56L98.5349 162.824L99.5111 163.009L100.462 163.292L101.411 163.596L102.398 163.717L103.37 163.905L104.343 164.085L105.319 164.251L106.299 164.389L107.276 164.549L108.263 164.613L109.249 164.685L110.235 164.763L111.225 164.765L112.212 164.859L113.201 164.836L114.192 164.855L115.179 164.775L116.165 164.685L117.155 164.642L118.133 164.472L119.113 164.341L120.089 164.167L121.077 164.074L122.034 163.801L123.004 163.603L123.976 163.4L124.937 163.151L125.876 162.822L126.835 162.566L127.749 162.163L128.687 161.833L129.618 161.483L130.524 161.068L131.436 160.669L132.361 160.297L133.249 159.839L134.104 159.317L134.961 158.8L135.84 158.326L136.704 157.824L137.531 157.259L138.388 156.753L139.33 157.009L140.269 157.307L141.206 157.606L142.118 157.983L143.048 158.308L143.947 158.718L144.874 159.057L145.773 159.467L146.646 159.935L147.538 160.358L148.41 160.825L149.268 161.32L150.137 161.795L151.018 162.247L151.85 162.791L152.681 163.334L153.488 163.916L154.319 164.461L155.073 165.119L155.907 165.663L156.658 166.323L157.44 166.941L158.184 167.608L158.93 168.275L159.656 168.965L160.326 169.714L160.98 170.477L161.679 171.196L162.357 171.938L162.913 172.786L163.6 173.523L164.135 174.383L164.746 175.186L165.228 176.079L165.788 176.919L166.279 177.804L166.819 178.66L167.27 179.57L167.717 180.481L168.053 181.445L168.448 182.38L168.804 183.331L169.156 184.285L169.448 185.26L169.764 186.228L170.06 187.203L170.332 188.187L170.517 189.193L170.73 190.19L170.906 191.198L171 192.162L170.034 192.212L169.05 192.202L168.066 192.184L167.082 192.235L166.099 192.178L165.115 192.18L164.131 192.186L163.147 192.217L162.164 192.234L161.18 192.209L160.196 192.211L159.212 192.164L158.228 192.219L157.244 192.254L156.26 192.25L155.276 192.248L154.292 192.273L153.308 192.266L152.325 192.203L151.341 192.198L150.357 192.238L149.374 192.172L148.389 192.229L147.405 192.208L146.421 192.268L145.437 192.171L144.455 192.269L143.471 192.225L142.487 192.213L141.502 192.196L140.518 192.164L139.534 192.218L138.55 192.273L137.567 192.173L136.582 192.219L135.598 192.181L134.614 192.265L133.631 192.179L132.647 192.19L131.663 192.176L130.679 192.226L129.696 192.272L128.712 192.216L127.729 192.209L126.745 192.265L125.76 192.269L124.777 192.17L123.794 192.232L122.81 192.205L121.827 192.264L120.843 192.178L119.859 192.193L118.876 192.266L117.891 192.196L116.908 192.245L115.925 192.189L114.941 192.224L113.957 192.213L112.974 192.241L111.99 192.18L111.005 192.249L110.021 192.23L109.037 192.161L108.055 192.249L107.071 192.168L106.087 192.19L105.103 192.18L104.119 192.172L103.135 192.242L102.151 192.268L101.167 192.185L100.184 192.204L99.1996 192.201L98.2157 192.192L97.2318 192.244L96.2479 192.227L95.2629 192.21L94.279 192.257L93.2951 192.229L92.3112 192.212L91.3274 192.264L90.3435 192.251L89.3595 192.268L88.3745 192.172L87.3906 192.202L86.4068 192.214L85.4229 192.234L84.439 192.253L83.454 192.168L82.4701 192.165L81.4862 192.188H80.5023L79.5173 192.267L78.5334 192.225L77.5495 192.22L76.5645 192.236L75.5806 192.269L74.5967 192.198L73.6117 192.213L72.6278 192.206L71.6439 192.176L70.66 192.268L69.6761 192.258L68.6911 192.176L67.7072 192.216L66.7233 192.269L65.7394 192.225L64.7555 192.181L63.7705 192.166L62.7866 192.233L61.8016 192.201L60.8177 192.216L59.8327 192.222L58.8489 192.227L57.8639 192.21L56.8789 192.202L55.895 192.23L54.91 192.24L53.9261 192.244L52.9411 192.257L51.9561 192.19L50.9711 192.205L49.9861 192.254L49 192.219Z" fill="#07122B"/>
<path fill-rule="evenodd" clip-rule="evenodd" d="M97.7461 130.851L97.8655 131.857L97.8909 132.861L97.9803 133.848L98.0888 134.856L98.0816 135.853L98.2363 136.841L98.2668 137.856L98.3186 138.856L98.3414 139.853L98.4183 140.849L98.4583 141.855L98.4849 142.857L98.5029 143.852L98.5625 144.862L98.4998 145.863L98.5552 146.863L98.4977 147.877L98.4344 148.867L98.4405 149.887L98.2394 150.904L98.0006 151.903L97.5773 152.893L96.7121 153.658L95.7313 154.167L94.7724 154.71L93.709 155.04L92.6996 155.415L91.6507 155.775L90.5741 156.007L89.5413 156.293L88.4975 156.617L87.4482 156.857L86.4621 157.274L85.4449 157.589L84.5617 158.136L83.6266 158.665L83.3125 158.189L84.2369 157.667L85.1771 157.084L86.2409 156.755L87.2491 156.329L88.329 156.082L89.3591 155.762L90.4194 155.468L91.4769 155.241L92.4825 154.895L93.5011 154.517L94.5164 154.202L95.4266 153.687L96.351 153.207L97.0659 152.575L97.423 151.74L97.6491 150.794L97.8381 149.838L97.8322 148.852L97.8964 147.847L97.8966 147.846L97.9522 146.862L97.8968 145.861L97.9594 144.861L97.901 143.872L97.8829 142.87L97.8828 142.868L97.8564 141.872L97.817 140.879L97.7397 139.879L97.7167 138.875L97.665 137.877L97.6353 136.889L97.4792 135.891L97.4865 134.882L97.3806 133.899L97.2894 132.891L97.2642 131.894L97.1475 130.912L97.0307 129.918L97.6293 129.858L97.7461 130.851Z" fill="#07122B"/>
<path fill-rule="evenodd" clip-rule="evenodd" d="M128.706 83.7671L128.927 84.991L129.051 85.9579L129.15 86.9151L129.285 87.8704L129.378 88.8216L129.575 89.7699L129.658 90.7301L129.861 91.6749L129.952 92.6523L129.952 92.6535L130.036 93.6003L130.22 94.54L130.364 95.5024L130.487 96.4579L130.631 97.4196L130.707 98.4348L130.917 99.443L130.962 100.476L131.129 101.479L131.229 102.502L131.367 103.519L131.453 104.532L131.638 105.547L131.692 106.583L131.792 107.61L131.786 108.64L131.856 109.649L131.814 110.65L131.922 111.663L131.825 112.677L131.87 113.689L131.744 114.703L131.697 115.704L131.597 116.725L131.407 117.716L131.299 118.71L131.152 119.731L130.871 120.703L130.704 121.707L130.359 122.672L130.081 123.634L129.772 124.611L129.361 125.559L128.889 126.447L128.51 127.385L127.998 128.282L127.449 129.127L126.927 130.009L126.269 130.792L125.664 131.601L124.977 132.362L124.263 133.087L123.522 133.778L122.76 134.461L121.929 135.063L121.086 135.637L120.212 136.14L119.347 136.701L118.386 137.074L117.458 137.478L116.48 137.815L115.483 138.025L115.478 138.026L114.493 138.249L113.477 138.405L112.467 138.477L111.453 138.5L110.432 138.443L109.436 138.276L108.425 138.132L107.465 137.786L106.523 137.505L106.522 137.505L105.55 137.22L104.605 136.809L103.741 136.305L102.829 135.879L101.974 135.313L101.182 134.712L100.331 134.153L99.6229 133.43L98.8548 132.809L98.0995 132.112L97.482 131.313L96.8213 130.584L96.1501 129.819L95.5984 128.966L95.0649 128.136L94.496 127.314L93.9834 126.442L93.6101 125.526L93.1659 124.655L92.7722 123.737L92.4374 122.804L92.1327 121.858L91.8933 120.906L91.6149 119.981L91.2918 119.042L91.0837 118.062L90.9225 117.096L90.7151 116.147L90.7149 116.147L90.5071 115.183L90.3412 114.212L90.1801 113.233L90.1027 112.256L89.9477 111.279L89.9333 110.293L89.8026 109.338L89.6844 108.347L89.6833 107.36L89.6064 106.392L89.5553 105.41L89.5278 104.77L89.0312 104.553L89.4298 103.645L89.4118 103.474L89.4891 103.466L89.7414 102.69L90.0386 101.727L90.0392 101.725L90.3325 100.751L90.6771 99.7994L90.9599 98.841L91.231 97.8732L91.4534 96.8955L91.4538 96.8934L91.672 95.8976L91.9538 94.933L92.1135 93.9353L92.3752 92.9576L92.5263 91.966L92.7199 90.9788L92.8363 89.9798L92.9873 88.9678L93.1917 87.9906L93.2222 86.9899L93.3346 85.9683L93.5355 84.6415L94.7827 85.0468L95.7009 85.3495L96.6671 85.5284L97.6196 85.8107L98.57 86.0441L99.5114 86.2785L100.479 86.4106L101.455 86.5848L102.41 86.7587L103.381 86.8338L104.371 86.9251L105.35 87.0746L106.304 87.1938L107.288 87.1641L108.275 87.2683L109.244 87.2781L110.227 87.2648L111.208 87.2627L112.179 87.2224L113.154 87.1282L114.144 87.0458L115.118 87.0175L116.077 86.8555L117.067 86.7315L118.043 86.6627L118.994 86.4807L119.954 86.2948L120.907 86.0551L121.868 85.8517L122.808 85.5975L122.811 85.5969L123.759 85.3323L124.706 85.0843L125.636 84.7951L125.64 84.7941L126.563 84.4944L127.476 84.1131L128.706 83.7671ZM89.9919 103.706L90.2683 102.856L90.5675 101.886L90.8574 100.924L91.2024 99.9709L91.4916 98.9912L91.7669 98.0084L91.993 97.0142L92.2078 96.0337L92.494 95.054L92.6547 94.0501L92.9169 93.0704L93.0708 92.0603L93.2662 91.0636L93.3841 90.0521L93.5315 89.0647L93.7426 88.0557L93.7739 87.0284L93.8826 86.0395L93.9845 85.367L94.6093 85.5701L94.6104 85.5704L95.5631 85.8845L96.5376 86.065L97.4748 86.3427L98.4362 86.5788L98.437 86.579L99.4067 86.8205L100.393 86.9551L101.356 87.127L101.356 87.1272L102.339 87.3059L103.334 87.3829L104.303 87.4723L105.274 87.6205L106.278 87.7459L107.267 87.7161L108.243 87.8191L109.245 87.8292L110.23 87.8159L110.233 87.8159L111.22 87.8137L112.217 87.7724L113.202 87.6772L113.206 87.6769L114.175 87.5963L115.172 87.5673L116.158 87.4008L117.121 87.2802L118.115 87.2101L119.099 87.0218L120.074 86.8329L121.032 86.592L121.997 86.3876L122.956 86.1285L123.901 85.8648L123.906 85.8637L124.859 85.6141L125.806 85.3197L126.755 85.0114L127.659 84.6344L128.27 84.4624L128.381 85.0748L128.502 86.0213L128.602 86.9819L128.736 87.9356L128.831 88.9045L129.028 89.8497L129.11 90.8118L129.314 91.7584L129.402 92.702L129.488 93.6775L129.675 94.6335L129.817 95.578L129.939 96.5338L130.082 97.4811L130.159 98.5116L130.367 99.5116L130.412 100.533L130.581 101.551L130.68 102.566L130.818 103.579L130.905 104.605L131.089 105.611L131.141 106.624L131.24 107.635L131.233 108.657L131.302 109.657L131.26 110.668L131.367 111.666L131.271 112.663L131.316 113.667L131.193 114.655L131.145 115.664L131.05 116.647L130.86 117.634L130.751 118.641L130.611 119.615L130.331 120.581L130.167 121.568L129.833 122.503L129.552 123.474L129.253 124.419L128.862 125.32L128.387 126.214L128.011 127.145L127.526 127.996L126.979 128.837L126.475 129.69L125.836 130.45L125.236 131.251L124.575 131.984L123.877 132.692L123.148 133.372L122.412 134.032L121.611 134.612L120.792 135.17L119.923 135.67L119.094 136.208L118.175 136.564L117.257 136.964L116.332 137.283L115.362 137.487L114.389 137.708L113.416 137.857L112.441 137.926L111.462 137.949L110.493 137.895L109.522 137.732L108.559 137.594L107.638 137.263L106.68 136.977L106.679 136.977L105.739 136.701L104.856 136.317L103.998 135.816L103.1 135.398L102.295 134.864L101.502 134.262L100.685 133.725L99.9957 133.022L99.2168 132.392L98.5089 131.739L97.9064 130.959L97.2357 130.219L97.2327 130.216L96.5926 129.486L96.0631 128.668L95.525 127.831L94.9624 127.018L94.4803 126.197L94.1132 125.297L93.6667 124.421L93.2868 123.536L92.9607 122.627L92.6643 121.707L92.4262 120.759L92.141 119.812L91.8254 118.895L91.6268 117.96L91.4653 116.992L91.255 116.03L91.0498 115.079L90.8864 114.122L90.8861 114.12L90.7291 113.167L90.6518 112.191L90.4996 111.232L90.4853 110.252L90.3507 109.269L90.2369 108.314L90.2358 107.338L90.1579 106.356L90.1073 105.385L90.1072 105.383L90.065 104.4L89.9919 103.706Z" fill="#07122B"/>
<path fill-rule="evenodd" clip-rule="evenodd" d="M107.54 105.852L108.102 105.863L108.083 106.797L108.072 107.746L107.964 108.68L107.956 109.597L107.99 110.538L107.954 111.495L107.832 112.42L107.854 113.342L107.836 114.281L107.835 115.229L107.728 116.165L107.715 116.8L108.468 116.743L109.537 116.67L110.603 116.663L111.655 116.61L111.655 116.61L112.71 116.556L113.763 116.469L113.812 116.997L112.75 117.086L111.686 117.14L111.685 117.14L110.62 117.193L109.56 117.201L108.511 117.272L108.509 117.272L107.141 117.375L107.166 116.131L107.273 115.2L107.274 114.276L107.292 113.343L107.269 112.393L107.393 111.452L107.427 110.537L107.394 109.604L107.402 108.649L107.51 107.715L107.521 106.789L107.54 105.852Z" fill="#07122B"/>
<path fill-rule="evenodd" clip-rule="evenodd" d="M107.141 120.634L107.514 120.256L108.119 121.019L108.776 121.671L109.596 122.057L110.434 122.428L111.309 122.568L112.202 122.539L113.075 122.352L113.913 121.997L114.714 121.569L115.385 120.894L115.719 121.317L114.994 122.047L114.108 122.52L113.21 122.9L112.256 123.104L111.281 123.136L110.306 122.98L109.408 122.582L108.508 122.159L107.765 121.423L107.141 120.634Z" fill="#07122B"/>
<path fill-rule="evenodd" clip-rule="evenodd" d="M104.281 106.395L103.357 106.706L102.44 106.991L101.555 107.359L100.672 107.773L100.469 107.25L101.362 106.833L102.277 106.451L103.211 106.161L104.129 105.852L104.281 106.395Z" fill="#07122B"/>
<path fill-rule="evenodd" clip-rule="evenodd" d="M124.55 132.542L124.728 131.923L124.163 131.778L123.973 132.44L123.857 133.463L123.797 134.467L123.714 135.459L123.622 136.458L123.573 137.463L123.53 138.454L123.416 139.464L123.477 140.471L123.41 141.453L123.41 141.453L123.344 142.467L123.378 143.486L123.463 144.481L123.48 145.478L123.543 146.493L123.695 147.488L123.786 148.483L123.943 149.483L124.129 150.5L124.517 151.462L124.902 152.42L125.522 153.317L126.438 153.992L127.511 154.346L128.548 154.593L129.522 154.999L130.548 155.352L131.569 155.662L132.564 156.043L133.573 156.379L134.546 156.817L135.557 157.159L136.511 157.617L137.505 158.022L138.476 158.436L139.416 158.905L140.33 159.406L141.193 159.989L141.195 159.991L142.062 160.585L142.406 160.138L141.538 159.542L141.537 159.542L140.648 158.941L139.7 158.422L138.734 157.94L137.741 157.516L136.76 157.116L135.79 156.65L134.771 156.306L133.797 155.867L132.772 155.526L131.769 155.142L130.738 154.829L129.741 154.485L128.74 154.068L127.68 153.816L126.723 153.5L125.959 152.938L125.428 152.168L125.065 151.265L124.697 150.353L124.521 149.396L124.369 148.419L124.277 147.425L124.127 146.438L124.066 145.457L124.048 144.454L123.964 143.455L123.93 142.475L123.995 141.488L123.995 141.488L124.064 140.473L124.003 139.477L124.114 138.495L124.158 137.489L124.158 137.487L124.207 136.495L124.298 135.504L124.382 134.504L124.441 133.508L124.55 132.542Z" fill="#07122B"/>
<path fill-rule="evenodd" clip-rule="evenodd" d="M140.318 99.1307L141.539 99.8242L142.262 100.902L142.67 101.829L142.926 102.78L143.156 103.724L143.305 104.693L143.359 105.683L143.232 106.655L143.13 107.613L142.931 108.568L142.695 109.536L142.246 110.431L141.84 111.303L141.84 111.305L141.434 112.197L140.924 113.07L140.287 113.848L139.7 114.638L139.054 115.408L138.36 116.145L137.601 116.841L136.768 117.428L135.987 118.09L135.001 118.613L133.984 119.057L132.833 119.296L131.653 119.048L130.708 118.334L130.315 117.331L130.862 117.15L131.202 118.015L131.917 118.555L132.834 118.748L133.792 118.549L134.73 118.14L135.639 117.657L136.392 117.019L137.217 116.439L137.933 115.781L138.603 115.07L139.229 114.325L139.814 113.537L140.432 112.782L140.907 111.967L141.304 111.096L141.715 110.215L142.141 109.365L142.361 108.46L142.553 107.537L142.654 106.597L142.776 105.665L142.725 104.744L142.583 103.82L142.359 102.902L142.115 101.994L141.741 101.144L141.116 100.212L140.174 99.677L138.972 99.7657L137.969 99.9741L136.998 100.353L136.005 100.689L135.094 101.165L134.193 101.658L133.385 102.263L132.608 102.917L131.889 103.584L131.429 104.417L130.963 105.461L129.964 105.713L129.128 105.967L128.277 106.202L128.109 105.691L128.953 105.458L129.795 105.202L130.533 105.016L130.9 104.195L131.411 103.268L132.205 102.532L133.004 101.859L133.858 101.219L134.801 100.704L135.759 100.203L136.783 99.8563L137.789 99.4639L138.884 99.2365L140.318 99.1307Z" fill="#07122B"/>
<path d="M119.204 103.316L118.653 103.614L118.825 103.82L119.408 103.273L119.492 103.196L119.268 103.037L118.983 103.648L118.942 103.736C118.924 103.766 118.919 103.801 118.929 103.834C118.938 103.868 118.961 103.896 118.993 103.915C119.026 103.932 119.065 103.936 119.101 103.927C119.137 103.919 119.169 103.897 119.188 103.867L119.473 103.256L119.513 103.169C119.53 103.141 119.535 103.109 119.528 103.078C119.522 103.047 119.503 103.02 119.476 103C119.449 102.98 119.414 102.97 119.379 102.972C119.344 102.974 119.311 102.988 119.287 103.01L118.704 103.557L118.621 103.635C118.596 103.658 118.581 103.688 118.578 103.72C118.576 103.752 118.586 103.784 118.608 103.809C118.629 103.834 118.66 103.852 118.694 103.858C118.729 103.864 118.764 103.858 118.794 103.841L119.345 103.542C119.377 103.524 119.399 103.496 119.408 103.463C119.416 103.43 119.411 103.395 119.392 103.366C119.374 103.336 119.344 103.315 119.308 103.306C119.273 103.296 119.235 103.3 119.202 103.316" fill="#07122B"/>
<path fill-rule="evenodd" clip-rule="evenodd" d="M116.819 106.812L117.76 107.101L118.68 107.455L119.593 107.818L120.484 108.236L120.27 108.733L119.393 108.321L118.497 107.965L117.596 107.618L116.672 107.335L116.819 106.812Z" fill="#07122B"/>
<path fill-rule="evenodd" clip-rule="evenodd" d="M86.8202 106.958L86.1719 106.371L86.4352 105.852L87.1145 106.467L87.7063 107.21L88.3168 107.908L89.0312 108.867L88.4943 109.947L88.0563 110.8L87.5795 111.614L87.2097 111.227L87.6775 110.429L88.1051 109.596L88.4282 108.946L87.9972 108.368L87.3927 107.677L86.8202 106.958Z" fill="#07122B"/>
<path fill-rule="evenodd" clip-rule="evenodd" d="M135.345 107.418L136.381 106.812L136.688 107.22L135.646 107.828L134.606 108.409L133.925 108.907L133.471 109.466L133.639 110.127L134.131 110.739L134.86 111.223L134.526 111.614L133.728 111.084L133.122 110.33L132.875 109.359L133.515 108.57L134.279 108.013L135.345 107.418Z" fill="#07122B"/>
<path d="M96.6562 99.1307L97.6152 98.8182L98.5784 98.5826L99.5179 98.2481L100.471 97.9735L101.436 97.7452L102.384 97.4473L103.341 97.1812L104.299 96.9273L105.248 96.6295L106.186 96.2852L107.141 96.0325L106.284 95.5308L105.398 95.0632L104.461 94.7459L103.527 94.4065L102.546 94.3601L101.571 94.3296L100.616 94.5579L99.7045 94.9387L98.8901 95.5344L98.1847 96.2852L97.5526 97.1226L97.0262 98.0577L96.6562 99.1307Z" fill="#07122B"/>
<path d="M125.25 99.1307L124.309 98.8607L123.34 98.6435L122.375 98.3986L121.427 98.0808L120.477 97.7744L119.514 97.5258L118.571 97.1841L117.613 96.9054L116.659 96.6178L115.699 96.3503L114.766 96.0275L115.607 95.5302L116.518 95.1158L117.427 94.6913L118.381 94.4276L119.356 94.3396L120.331 94.3296L121.29 94.5356L122.193 94.9525L123.028 95.5264L123.791 96.2435L124.38 97.1578L124.872 98.1449L125.25 99.1307Z" fill="#07122B"/>
<path d="M124.469 140.93L123.663 141.469L122.762 141.881L121.894 142.363L121.04 142.876L120.127 143.255L119.19 143.568L118.298 144.004L117.363 144.325L116.415 144.596L115.456 144.818L114.488 145.002L113.509 145.092L112.532 145.202L111.549 145.222L110.569 145.149L109.587 145.061L108.638 144.79L107.688 144.538L106.78 144.151L105.873 143.763L105.001 143.293L104.201 142.697L103.383 142.128L102.642 141.453L101.929 140.744L101.333 139.923L100.665 139.168L100.109 138.32L99.6118 137.434L99.1327 136.54L98.6383 135.653L98.2653 134.701L97.8102 133.788L97.4777 132.82L97.1802 131.842L96.8761 130.865L96.6562 129.858L97.2721 130.656L97.9645 131.373L98.7137 132.025L99.4652 132.669L100.195 133.34L100.953 133.977L101.761 134.542L102.542 135.148L103.375 135.673L104.223 136.17L105.1 136.611L105.971 137.065L106.889 137.404L107.801 137.761L108.754 137.976L109.705 138.186L110.661 138.382L111.632 138.449L112.604 138.477L113.579 138.451L114.545 138.312L115.489 138.063L116.433 137.831L117.356 137.515L118.268 137.163L119.131 136.696L120.022 136.279L120.808 135.674L121.631 135.131L122.383 134.488L123.133 133.842L123.841 133.146L124.529 132.429L125.25 131.732L125.127 132.755L125.089 133.781L125.045 134.807L124.867 135.821L124.882 136.853L124.73 137.87L124.698 138.898L124.537 139.914L124.469 140.93Z" fill="#07122B"/>
<path fill-rule="evenodd" clip-rule="evenodd" d="M99.5475 97.2102L100.578 97.2361L101.613 97.3958L102.592 97.7353L103.507 98.1539L104.426 98.6007L105.267 99.2124L105.963 99.9543L106.582 100.737L107.102 101.581L107.535 102.466L107.893 103.408L108.004 104.394L108.094 105.365L108.024 106.342L107.91 107.338L107.52 108.264L107.118 109.16L106.584 109.998L105.989 110.815L105.221 111.487L104.429 112.107L103.552 112.653L102.588 113.023L101.601 113.336L100.574 113.442L99.5555 113.534L98.5237 113.457L97.5162 113.288L96.5135 113.026L95.5838 112.583L94.7076 112.075L93.9024 111.461L93.1781 110.766L92.5451 110.006L91.9229 109.198L91.5569 108.252L91.2883 107.321L91.023 106.371L90.9375 105.361L91.0771 104.383L91.1971 103.408L91.5112 102.453L91.9404 101.551L92.4692 100.687L93.1638 99.9531L93.8598 99.2422L94.6627 98.5881L95.5957 98.1499L95.5965 98.1495L96.5169 97.7135L97.5197 97.4682L98.5218 97.2771L99.5475 97.2102ZM99.559 97.7343L98.5944 97.7973L97.6413 97.979L96.7086 98.2072L95.8391 98.6191L95.8382 98.6195L94.966 99.0292L94.2389 99.6215L93.5671 100.308L92.9137 100.998L92.4276 101.793L92.0239 102.64L91.7353 103.518L91.6207 104.449L91.4885 105.375L91.5652 106.282L91.8169 107.183L91.8175 107.185L92.079 108.091L92.41 108.947L92.9803 109.687L93.5879 110.417L94.2686 111.07L95.0219 111.644L95.8487 112.124L96.7099 112.534L97.6361 112.777L98.5925 112.937L99.5509 113.008L100.517 112.921L100.52 112.921L101.484 112.821L102.399 112.531L103.298 112.186L104.105 111.684L104.862 111.091L105.574 110.468L106.125 109.712L106.63 108.92L107.013 108.063L107.373 107.209L107.478 106.296L107.544 105.371L107.459 104.445L107.355 103.527L107.029 102.667L106.616 101.826L106.126 101.028L105.539 100.288L104.893 99.5989L104.134 99.046L103.265 98.6235L102.38 98.2188L101.474 97.9049L100.527 97.7587L99.559 97.7343Z" fill="#07122B"/>
<path fill-rule="evenodd" clip-rule="evenodd" d="M120.492 97.2102L121.5 97.2913L122.535 97.3949L123.51 97.753L124.432 98.1481L125.353 98.5984L126.198 99.2147L126.855 99.9792L127.523 100.723L128.026 101.591L128.456 102.479L128.785 103.417L128.978 104.39L129.062 105.379L129.006 106.371L128.84 107.365L128.459 108.284L128.097 109.205L127.553 110.062L126.911 110.841L126.182 111.56L125.326 112.117L124.473 112.65L123.531 113.103L122.516 113.314L122.515 113.314L121.512 113.525L120.478 113.534L119.459 113.492L118.448 113.324L117.453 113.062L116.491 112.668L115.627 112.113L114.844 111.495L114.065 110.85L113.401 110.064L112.91 109.183L112.505 108.279L112.214 107.337L112.016 106.376L111.906 105.379L112.042 104.395L112.195 103.436L112.445 102.466L112.89 101.553L113.467 100.74L114.058 99.9383L114.784 99.204L116.502 98.1349L117.438 97.6681L118.453 97.4689L119.447 97.2256L120.492 97.2102ZM119.52 97.7494L118.576 97.9805L117.622 98.1675L116.778 98.5887L115.137 99.6105L114.482 100.272L113.917 101.039L113.368 101.813L112.963 102.642L112.732 103.538L112.584 104.469L112.457 105.386L112.558 106.298L112.746 107.211L113.021 108.1L113.404 108.955L113.859 109.772L114.459 110.483L115.197 111.093L115.954 111.691L116.754 112.205L117.634 112.566L118.567 112.812L119.518 112.969L120.488 113.009L121.45 113.001L122.398 112.801L122.399 112.801L123.347 112.604L124.2 112.195L125.023 111.68L125.828 111.156L126.499 110.494L127.103 109.762L127.603 108.974L127.948 108.095L128.309 107.225L128.461 106.315L128.514 105.386L128.434 104.461L128.255 103.551L127.947 102.673L127.538 101.829L127.071 101.024L126.436 100.317L125.816 99.5955L125.061 99.0446L124.196 98.6217L123.3 98.238L122.407 97.9097L121.449 97.8138L120.473 97.7354L119.52 97.7494Z" fill="#07122B"/>
<path fill-rule="evenodd" clip-rule="evenodd" d="M110.016 103.932L110.978 104.172L111.716 104.853L111.906 105.76L111.479 105.844L111.316 105.067L110.76 104.554L110.008 104.366L109.25 104.527L108.716 105.071L108.517 105.852L108.094 105.751L108.32 104.861L109.026 104.142L110.016 103.932Z" fill="#07122B"/>
<path fill-rule="evenodd" clip-rule="evenodd" d="M82.2691 98.1704L83.5969 98.1928L84.5938 98.5605L85.4958 99.0332L86.4028 99.5415L87.1678 100.253L87.8707 100.977L88.5646 101.719L89.2004 102.543L89.672 103.451L90.1902 104.343L90.4402 105.195L91.0821 105.262L91.8906 105.335L91.8427 105.869L91.0311 105.795L90.0314 105.692L89.6988 104.557L89.207 103.711L88.7516 102.834L88.1605 102.068L87.4873 101.348L86.7975 100.638L86.0891 99.9789L85.244 99.5053L84.379 99.052L83.4985 98.7272L82.4087 98.7088L81.5387 99.2205L80.9965 100.168L80.6379 101.025L80.3606 101.917L80.1698 102.829L80.0876 103.765L80.0323 104.705L80.0739 105.644L80.1654 106.57L80.4264 107.483L80.6124 108.415L80.9427 109.287L81.3183 110.166L81.6853 111.034L82.1644 111.836L82.6904 112.623L83.2432 113.386L83.848 114.107L84.4867 114.807L84.4875 114.808L85.1214 115.496L85.8548 116.096L86.532 116.758L87.3267 117.286L88.2071 117.634L89.1049 117.792L90.0621 117.641L90.8216 117.073L91.2321 116.201L91.7123 116.431L91.2448 117.424L90.2735 118.15L89.1002 118.335L88.063 118.152L87.0808 117.765L86.1979 117.178L85.5016 116.498L84.7573 115.889L84.0971 115.172L84.0962 115.171L83.4493 114.461L82.8252 113.718L82.2553 112.931L81.7161 112.124L81.2108 111.278L80.8297 110.377L80.8293 110.376L80.4501 109.489L80.1 108.565L79.9096 107.61L79.6412 106.671L79.5435 105.683L79.5 104.701L79.5574 103.726L79.6431 102.75L79.8457 101.782L80.1383 100.841L80.5196 99.9291L81.1489 98.8293L82.2691 98.1704Z" fill="#07122B"/>
<path d="M141.733 83.5282L141.359 82.5966L141.008 81.6506L140.494 80.7801L140.108 79.8463L139.66 78.9414L139.231 78.0309L138.86 77.1426L138.524 76.2355L138.323 75.2884L138.061 74.3602L137.787 73.433L137.601 72.4859L137.519 71.5199L137.303 70.5784L137.127 69.6301L136.933 68.6852L136.83 67.7237L136.627 66.7799L136.404 65.8406L136.166 64.9057L135.943 63.8919L135.627 62.9026L135.264 61.9289L134.816 60.9895L134.323 60.0757L133.847 59.1508L133.213 58.3247L132.61 57.4753L131.865 56.7458L131.092 56.0475L130.214 55.4856L129.304 54.986L128.365 54.5252L127.318 54.332L126.277 54.1577L125.225 54.0189L124.162 54L123.099 54.0111L122.045 54.1732L120.984 54.2309L119.977 54.3164L118.97 54.3808L117.969 54.5374L116.963 54.6384L115.956 54.725L114.958 54.9016L113.959 55.0548L112.952 55.1403L111.945 55.2513L110.962 55.5045L109.956 55.6244L108.966 55.8354L107.982 56.0697L106.995 56.2917L106.019 56.5582L105.06 56.8824L104.102 57.2011L103.128 57.4776L102.205 57.8928L101.272 58.2792L100.319 58.629L99.4188 59.1053L98.5319 59.6038L97.6852 60.1668L96.8318 60.722L96.0243 61.3382L95.2414 61.9811L94.4585 62.6328L93.7326 63.3412L93.0392 64.0818L92.4363 64.8968L91.7586 65.6574L91.2597 66.5456L90.7688 67.4217L90.3158 68.3277L89.9635 69.2782L89.6447 70.2419L89.5049 71.2468L89.3293 72.1828L89.3159 73.1366L89.204 74.0815L89.0766 75.0252L89.0162 75.9757L88.8506 76.9139L88.5743 77.8266L88.1986 78.7038L87.6237 79.4643L87.0264 80.2105L86.2312 80.7479L85.4729 81.3275L84.6654 81.8393L83.9004 82.4134L83.1577 83.0185L82.5985 83.7902L82.0874 84.5841L81.7787 85.4723L81.5181 86.3862L81.4644 87.3344L81.4062 88.2859L81.5874 89.2242L81.6378 90.1757L81.8961 91.1495L82.0393 92.1488L82.3133 93.1159L82.5918 94.0807L82.8356 95.0578L83.2159 95.9905L83.6185 96.9121L83.9462 97.8637L84.4428 98.7419L84.8376 99.6746L85.6787 100.23L86.4817 100.833L87.1931 101.541L87.8127 102.327L88.4737 103.079L88.9703 103.947L89.364 104.892L89.5597 103.904L89.8494 102.962L90.035 101.997L90.2587 101.043L90.4824 100.087L90.7005 99.1283L90.8873 98.1634L91.1266 97.2108L91.3403 96.2515L91.5751 95.2966L91.6982 94.3184L91.9677 93.3701L92.1333 92.4008L92.3133 91.4337L92.5527 90.4788L92.7048 89.5062L92.8546 88.5346L93.0135 87.5642L93.1466 86.5905L93.2808 85.6167L93.4497 84.6474L94.4082 84.9216L95.3343 85.3025L96.3006 85.5512L97.2859 85.7211L98.2579 85.9431L99.2197 86.2096L100.213 86.3206L101.19 86.5116L102.169 86.7048L103.167 86.767L104.145 86.9824L105.144 87.0213L106.141 87.0679L107.13 87.2211L108.128 87.2378L109.126 87.2122L110.122 87.2722H111.12L112.115 87.1811L113.11 87.1034H114.11L115.098 86.9691L116.087 86.8492L117.077 86.7381L118.066 86.6115L119.059 86.5005L120.036 86.3018L120.997 86.0242L121.973 85.8232L122.952 85.6245L123.908 85.3424L124.853 85.026L125.8 84.714L126.736 84.3753L127.689 84.08L128.652 83.7003L128.697 84.7318L128.872 85.7311L129.039 86.7304L129.1 87.7485L129.248 88.7545L129.377 89.7638L129.507 90.7731L129.705 91.7724L129.76 92.7917L129.914 93.7976L130.129 94.7969L130.23 95.8095L130.291 96.8277L130.515 97.827L130.655 98.8352L130.786 99.8445L130.91 100.855L131.043 101.864L131.136 102.879L131.301 103.878L131.934 103.232L132.659 102.644L133.357 102.024L134.117 101.479L134.789 100.834L135.359 100.284L135.713 99.5769L135.767 98.7086L135.755 97.8359L135.805 96.8677L136.146 95.9539L136.648 95.1145L137.339 94.4205L137.974 93.6788L138.705 93.0326L139.456 92.4075L140.174 91.7413L140.809 90.9996L141.448 90.259L141.865 89.3707L142.219 88.4336L142.406 87.4454L142.395 86.4406L142.293 85.4413L142.136 84.442L141.733 83.5282ZM135.917 77.2948L135.557 76.371L135.3 75.4116L134.928 74.4901L134.733 73.5163L134.494 72.5559L134.271 71.5921L134.075 70.6217L133.906 69.6457L133.876 68.6797L133.782 67.7215L133.67 66.7633L133.637 65.8006L133.679 64.899L133.512 64.0108L133.279 63.1458L132.891 62.343L133.18 61.5169L133.994 61.7035L134.41 62.5484L134.696 63.4478L134.808 64.3827L134.896 65.3176L134.941 66.2558L135.003 67.1952L135.069 68.1334L135.088 69.075L135.278 70.0743L135.39 71.0891L135.633 72.0806L135.857 73.0799L136.177 74.0493L136.485 75.0197L136.757 76.0057L137.217 76.9217L136.769 77.7133L135.917 77.2948Z" fill="#07122B"/>
<path d="M144.029 190.016L144.061 190.844L144.054 191.648L144.044 192.452L144.068 193.257L144.101 194.061L144.066 194.865L144.054 195.669L144.009 196.473L144.061 197.277L144.113 198.081L144.01 198.885L144.027 199.689L144.08 200.493L144.085 201.297L144.039 202.101L144.024 202.905L144.034 203.709L144.12 204.513L144.114 205.317L144 206.122L144.019 206.926L144.008 207.73L144 208.534L144.016 209.338L144.049 210.142L144.066 210.947L144.072 211.751L144.106 212.556L144.034 213.36L144.037 214.166L144.043 215L144.804 214.404L145.622 213.89L146.429 213.369L147.178 212.807L147.927 212.244L148.702 211.701L149.52 211.186L150.288 210.636L151.064 210.136L151.889 210.688L152.73 211.272L153.576 211.852L154.461 212.403L155.233 213.034L156.094 213.604L156.921 214.15L156.965 213.381L156.951 212.576L156.887 211.771L156.915 210.966L156.985 210.162L156.963 209.357L156.986 208.552L156.968 207.747L156.961 206.943L156.997 206.138L156.949 205.333L157 204.529L156.982 203.725L156.937 202.92L156.908 202.116L156.925 201.311L156.944 200.506L156.999 199.701L156.924 198.896L156.906 198.091L156.933 197.285L156.913 196.481L156.909 195.677L156.951 194.872L156.935 194.067L156.961 193.261L156.949 192.456L156.967 191.651L156.978 190.845L156.939 190.041L155.771 190L154.6 190.08L153.429 190.008L152.259 190.066L151.088 190.037L149.918 190.026L148.747 190.024L147.576 190.056L146.405 190.079L145.234 190.068L144.029 190.016Z" fill="#EF457E"/>
<path d="M150.507 180.75L151.256 181.768L151.93 182.823L152.948 182.1L153.899 181.38L154.268 182.514L154.639 183.716L155.805 183.237L157.001 182.891L156.901 184.134L156.967 185.369L158.202 185.366L159.38 185.382L159.061 186.518L158.686 187.663L159.821 188.067L160.963 188.439L160.75 189.414L160.557 190.391L160.941 191.165L161.469 191.817L160.552 192.564L159.539 193.265L160.305 194.228L160.928 195.219L159.848 195.676L158.694 196.007L159.045 197.152L159.421 198.312L158.202 198.29L156.984 198.312L156.888 199.529L156.972 200.733L155.794 200.47L154.655 199.977L154.242 201.142L153.928 202.371L152.901 201.63L151.929 200.828L151.198 201.854L150.498 202.835L149.788 202.346L149.082 201.765L148.086 202.084L147.071 202.349L146.707 201.161L146.328 200.027L145.204 200.441L144.045 200.722L144.039 199.532L144.047 198.287L142.804 198.307L141.645 198.268L141.983 197.159L142.392 195.966L141.175 195.63L140.011 195.245L140.542 194.273L140.981 193.265L140.284 192.493L139.547 191.84L140.415 191.047L141.525 190.41L140.737 189.411L140.1 188.452L141.181 188.054L142.303 187.654L141.953 186.515L141.64 185.393L142.804 185.41L144.002 185.33L144.089 184.132L143.979 182.855L145.191 183.264L146.37 183.721L146.763 182.521L147.069 181.314L148.181 181.526L149.28 181.709L150.507 180.75Z" fill="#FFD44D"/>
<path d="M79.5485 111.991L80.3682 112.567C80.4534 112.628 80.4898 112.257 80.4046 112.196L79.5849 111.62C79.4998 111.56 79.4633 111.931 79.5485 111.991Z" fill="#07122B"/>
<path d="M157.748 164.871L159.301 166.316C159.341 166.346 159.389 166.355 159.433 166.339C159.478 166.323 159.516 166.284 159.54 166.231C159.562 166.176 159.568 166.112 159.557 166.052C159.545 165.992 159.516 165.94 159.477 165.908L157.924 164.463C157.905 164.446 157.882 164.434 157.859 164.429C157.836 164.424 157.812 164.425 157.79 164.433C157.767 164.44 157.745 164.454 157.726 164.473C157.708 164.492 157.692 164.516 157.68 164.543C157.668 164.571 157.661 164.601 157.658 164.633C157.655 164.664 157.656 164.696 157.663 164.727C157.669 164.757 157.68 164.786 157.695 164.811C157.71 164.835 157.728 164.856 157.748 164.871Z" fill="#07122B"/>
<path d="M139.263 183.727C138.558 185.451 138.015 187.271 137.646 189.152C137.599 189.393 137.895 189.496 137.942 189.254C138.304 187.406 138.836 185.616 139.528 183.922C139.619 183.702 139.353 183.506 139.263 183.729" fill="#FFD44D"/>
<path d="M141.689 181.672L142.362 180.995C142.375 180.982 142.386 180.966 142.394 180.949C142.402 180.931 142.406 180.913 142.406 180.894C142.407 180.875 142.403 180.856 142.396 180.838C142.389 180.821 142.378 180.805 142.365 180.791C142.352 180.778 142.336 180.767 142.319 180.76C142.301 180.753 142.282 180.75 142.264 180.75C142.245 180.75 142.226 180.755 142.209 180.762C142.192 180.77 142.176 180.781 142.164 180.795L141.491 181.473C141.466 181.5 141.453 181.535 141.453 181.572C141.454 181.608 141.468 181.643 141.494 181.669C141.52 181.695 141.554 181.71 141.591 181.71C141.627 181.711 141.662 181.697 141.689 181.672Z" fill="#FFD44D"/>
<path d="M108.247 151.899C109.778 152.043 111.324 151.834 112.753 151.288C112.941 151.216 112.859 150.921 112.667 150.994C111.266 151.532 109.75 151.738 108.247 151.595C108.042 151.576 108.043 151.881 108.247 151.901" fill="#07122B"/>
</g>
<defs>
<clipPath id="clip0">
<rect width="220" height="215" fill="white"/>
</clipPath>
</defs>
</svg>
