<svg width="220" height="215" viewBox="0 0 220 215" fill="none" xmlns="http://www.w3.org/2000/svg">
<g clip-path="url(#clip0)">
<path d="M173.416 151.413C173.416 152.209 173.443 153.002 173.443 153.794C173.443 155.902 173.443 158.01 173.443 160.12C173.443 161.048 173.392 161.98 173.443 162.908C173.527 164.319 173.412 165.726 173.471 167.14C173.515 168.263 173.4 169.422 173.416 170.552C173.439 172.355 173.384 174.162 173.479 175.969C173.511 176.58 173.742 176.488 174.156 176.488C176.304 176.488 178.452 176.518 180.604 176.514C181.129 176.514 181.4 176.676 181.4 177.119C181.32 180.313 181.233 183.507 181.181 186.698C181.181 187.095 180.978 187.121 180.596 187.121C176.419 187.154 172.241 187.195 168.061 187.243C167.357 187.243 166.653 187.243 165.957 187.286C165.328 187.329 165.066 187.171 165.105 186.626C165.145 186.081 165.105 185.417 165.105 184.812C165.105 184.654 165.165 184.574 164.787 184.551C163.327 184.469 161.887 184.624 160.439 184.654C158.311 184.7 156.186 184.693 154.074 184.624C153.008 184.591 151.93 184.591 150.891 184.515C149.976 184.449 149.065 184.344 148.162 184.201C147.609 184.112 147.041 184.092 146.499 183.983C145.958 183.874 145.477 183.719 144.948 183.62C143.828 183.417 142.685 183.314 141.539 183.312C140.794 183.286 140.047 183.333 139.315 183.451C138.233 183.666 137.127 183.755 136.045 183.943C134.554 184.222 133.026 184.342 131.498 184.3C130.217 184.247 128.928 184.3 127.647 184.3C126.752 184.3 125.853 184.432 124.946 184.28C124.039 184.128 123.144 184.353 122.245 184.208C121.346 184.062 120.435 184.208 119.528 184.151C118.77 184.066 118.002 184.075 117.248 184.178C116.934 184.241 116.87 184.287 116.874 184.535C116.874 185.248 116.83 185.962 116.834 186.675C116.834 187.035 116.667 187.124 116.25 187.128C113.167 187.144 110.084 187.184 107 187.217C105.167 187.237 103.329 187.24 101.491 187.286C100.934 187.286 100.743 187.151 100.755 186.698C100.755 185.948 100.691 185.199 100.755 184.452C100.787 183.98 100.528 183.966 100.094 183.97C98.6026 183.97 97.1068 183.97 95.615 183.97C94.5867 184.013 93.5563 184.013 92.528 183.97C91.2342 183.897 89.9364 183.888 88.6413 183.943C87.2291 183.96 85.793 184.009 84.3688 184.062C82.5627 184.132 80.7447 184.099 78.9347 184.142C77.3036 184.181 75.6567 184.142 74.0455 184.27C72.5776 184.399 71.1057 184.432 69.6417 184.508C67.9709 184.594 66.2881 184.839 64.6054 184.66C63.3045 184.528 62.0037 184.69 60.6988 184.587C59.3025 184.478 57.8863 184.587 56.482 184.568C55.4238 184.548 54.3616 184.634 53.2995 184.478C52.8619 184.416 52.5038 184.521 52.5357 185.033C52.5675 185.545 52.4641 186.054 52.4879 186.563C52.5118 187.072 52.293 187.187 51.7241 187.184C49.0986 187.184 46.473 187.184 43.8474 187.214C41.6316 187.233 39.4197 187.257 37.2079 187.303C36.6271 187.303 36.3725 187.224 36.3406 186.642C36.273 185.403 36.0502 184.171 36.4441 182.939C36.4963 182.663 36.4163 182.381 36.2213 182.153C35 180.538 35.2108 178.704 35 176.937C35 176.739 35 176.607 35.3143 176.646C35.5052 176.666 35.7121 176.617 35.903 176.627C37.0368 176.696 38.1427 176.765 39.2725 176.435C40.2273 176.151 41.2616 176.257 42.288 176.362C42.6579 176.399 43.0319 176.402 43.3462 176.415C43.6087 175.183 43.366 173.977 43.382 172.782C43.4513 171.765 43.4154 170.745 43.2745 169.733C43.1671 169.201 43.37 168.616 43.3342 168.055C43.2586 166.819 43.2785 165.577 43.3024 164.348C43.3342 162.925 43.195 161.504 43.3024 160.08C43.3263 159.75 43.1154 159.42 43.1433 159.116C43.2029 158.508 42.8409 157.9 43.1433 157.302C43.2387 157.104 42.833 157.002 43.0637 156.814L43.2706 156.794C43.4838 156.7 43.7077 156.623 43.9389 156.566C44.1696 156.526 44.5794 156.609 44.4879 156.784C44.2492 157.24 44.4879 157.669 44.4561 158.105C44.3725 159.132 44.6868 160.147 44.7067 161.174C44.7345 162.654 44.639 164.147 44.7067 165.62C44.7067 165.97 44.9016 166.327 44.7783 166.677C44.468 167.539 44.7783 168.418 44.7146 169.29C44.6788 169.861 44.7146 170.492 44.7146 171.084C44.7345 171.873 44.7146 172.679 44.6828 173.479C44.6629 174.377 44.7305 175.276 44.7186 176.174C44.7186 176.435 44.8698 176.504 45.0926 176.504C46.469 176.461 47.8773 176.597 49.2298 176.385C50.7256 176.154 50.7415 176.134 51.3502 177.251C51.7798 178.037 52.1458 178.843 51.6804 179.722C51.6173 179.859 51.5879 180.004 51.5941 180.151C51.6002 180.297 51.6418 180.441 51.7162 180.574C52.1237 181.345 52.3466 182.174 52.3726 183.015C52.3726 183.253 52.5038 183.322 52.7704 183.362C53.7967 183.527 54.8311 183.421 55.8574 183.405C58.7018 183.362 61.5462 183.478 64.3945 183.421C65.8465 183.392 67.3065 183.421 68.7705 183.362C69.4627 183.336 70.2305 183.174 70.8113 183.253C71.5234 183.352 72.2036 183.203 72.9038 183.273C73.8466 183.372 74.8531 183.042 75.8556 183.124C76.1221 183.144 76.3528 183.032 76.6273 183.038C78.3419 183.078 80.0525 182.975 81.7711 182.969C83.8755 182.969 85.9839 182.913 88.0884 182.873C89.0431 182.853 89.9979 182.873 90.9526 182.873C91.67 182.81 92.3918 182.789 93.1128 182.81C93.9084 182.893 94.704 182.837 95.4997 182.853C97.0273 182.88 98.5588 182.853 100.082 182.83C100.703 182.83 100.639 182.645 100.639 182.328C100.639 180.591 100.663 178.853 100.612 177.115C100.612 176.58 100.854 176.455 101.407 176.475C103.211 176.499 105.013 176.514 106.814 176.521C109.954 176.521 113.092 176.521 116.23 176.521C116.735 176.521 116.966 176.696 116.962 177.106C116.962 177.287 116.962 177.472 116.962 177.654C116.934 179.279 116.902 180.901 116.878 182.523C116.878 182.9 116.934 183.081 117.562 183.045C118.955 182.969 120.347 183.045 121.755 183.068C122.742 183.068 123.725 183.104 124.707 183.124C127.046 183.17 129.382 183.141 131.721 183.253C132.707 183.284 133.694 183.216 134.661 183.048C135.906 182.847 137.123 182.53 138.388 182.388C139.35 182.224 140.324 182.114 141.304 182.057C143.894 182.057 146.372 182.738 148.902 183.088C150.072 183.246 151.243 183.363 152.415 183.438C153.838 183.538 155.268 183.566 156.695 183.521C157.447 183.494 158.203 183.639 158.939 183.521C159.718 183.446 160.502 183.417 161.286 183.431C162.321 183.382 163.379 183.355 164.429 183.378C164.994 183.378 165.097 183.16 165.089 182.718C165.046 180.799 165.066 178.879 165.046 176.96C165.046 176.587 165.225 176.452 165.642 176.461C166.171 176.461 166.697 176.481 167.234 176.485H171.637C171.912 176.485 172.214 176.485 172.119 176.138C171.995 175.546 171.965 174.943 172.031 174.344C172.083 173.218 172.103 172.094 172.079 170.968C172.079 170.281 172.019 169.581 172.027 168.904C172.027 168.028 172.103 167.149 172.027 166.261C171.98 165.693 172.027 165.118 172.007 164.55C171.971 164.058 171.98 163.564 172.035 163.073C172.098 162.49 172.104 161.903 172.055 161.319C172.055 160.47 172.107 159.618 172.103 158.769C172.103 158.042 172.027 157.319 172.023 156.592C172.019 155.865 172.083 155.056 172.095 154.28C172.095 153.312 172.095 152.347 172.095 151.38L173.416 151.413Z" fill="#09132D"/>
<path d="M109.129 89.5059C109.543 89.5627 109.921 89.7338 110.203 89.9914C111.44 90.9263 112.817 91.7124 114.11 92.5878C114.581 92.924 115.026 93.2848 115.442 93.668C115.84 94.0347 116.306 94.3914 116.763 94.7349C117.559 95.3361 118.231 96.0563 119.015 96.6707C120.391 97.7541 121.696 98.8971 123.088 99.9739C123.773 100.506 124.544 100.965 125.177 101.526C126.326 102.477 127.577 103.339 128.912 104.103C129.393 104.391 129.832 104.723 130.221 105.094C130.704 105.484 131.264 105.802 131.876 106.035C132.075 106.128 132.123 106.316 132.322 106.389C133.392 106.769 134.088 107.588 135.106 108.041C135.755 108.331 136.189 108.969 137.056 108.916C137.275 109.418 137.903 109.448 138.337 109.705C139.09 110.133 139.889 110.502 140.724 110.809C141.241 111.013 141.758 111.288 142.275 111.529C143.301 111.978 144.364 112.364 145.458 112.685C146.333 112.959 147.14 113.405 148.043 113.613C149.392 113.917 150.681 114.366 152.077 114.604C152.909 114.736 153.764 114.934 154.607 115.067C155.953 115.343 157.344 115.432 158.725 115.328C158.9 115.332 159.073 115.354 159.242 115.394C161.072 115.602 162.822 115.238 164.608 115.037C165.038 114.987 165.134 114.835 165.134 114.498C165.114 112.186 165.134 109.874 165.098 107.562C165.098 107.026 165.336 106.901 165.869 106.901C168.654 106.917 171.439 106.924 174.224 106.937L180.537 106.977C181.309 106.977 181.452 107.083 181.44 107.74C181.408 109.623 181.372 111.502 181.321 113.385C181.289 114.64 181.321 115.899 181.217 117.154C181.189 117.445 181.134 117.547 180.74 117.551C178.568 117.551 176.392 117.6 174.22 117.637C173.778 117.637 173.273 117.448 173.519 118.238C173.766 119.027 173.575 119.889 173.539 120.742C173.504 121.667 173.539 122.598 173.539 123.516C173.583 124.287 173.564 125.06 173.484 125.829C173.392 126.331 173.611 126.82 173.547 127.358C173.464 128.046 173.443 128.738 173.484 129.429C173.563 130.187 173.594 130.948 173.575 131.708C173.519 132.505 173.543 133.304 173.504 134.1C173.391 135.214 173.397 136.334 173.523 137.446C173.631 138.09 173.364 138.672 173.464 139.29C173.563 139.907 173.388 140.522 173.519 141.08C173.726 141.992 173.488 142.883 173.539 143.779C173.615 145.007 173.539 146.269 173.476 147.515C173.452 147.974 173.476 148.436 173.476 148.895C173.008 148.94 172.534 148.911 172.079 148.81C172.246 148.172 172.079 147.531 172.127 146.89C172.207 145.219 172.067 143.547 172.127 141.873C172.195 139.811 172.127 137.744 172.127 135.679C172.072 134.883 172.083 134.085 172.159 133.291C172.286 132.518 172.091 131.761 172.159 130.978C172.238 130.133 172.238 129.284 172.159 128.438C172.052 127.494 172.091 126.552 172.087 125.617C172.087 123.599 172.171 121.577 172.151 119.552C172.101 119.113 172.101 118.671 172.151 118.231C172.266 117.716 172.055 117.663 171.578 117.67C169.891 117.689 168.205 117.703 166.518 117.726C165.221 117.746 165.233 117.755 165.157 116.662C165.157 116.484 165.305 116.196 164.99 116.137C164.854 116.115 164.712 116.129 164.585 116.175C164.457 116.22 164.349 116.297 164.274 116.395C164.147 116.57 164.091 116.55 163.968 116.421C163.781 116.219 163.514 116.302 163.3 116.325C162.504 116.408 161.736 116.573 160.952 116.616C160.579 116.655 160.2 116.655 159.827 116.616C159.225 116.526 158.612 116.508 158.005 116.563C157.316 116.606 156.684 116.378 155.964 116.464C155.463 116.523 154.731 116.236 154.106 116.167C152.913 116.034 151.755 115.734 150.577 115.532C149.324 115.318 148.163 114.799 146.906 114.541C146.497 114.464 146.102 114.342 145.732 114.178C144.937 113.837 144.119 113.534 143.282 113.273C142.804 113.101 142.331 112.943 141.857 112.777C141.456 112.602 141.068 112.405 140.696 112.189C139.968 111.833 139.188 111.529 138.484 111.152C137.267 110.515 135.998 109.943 134.82 109.243C133.77 108.619 132.696 108.011 131.638 107.396C131.24 107.152 130.882 106.802 130.476 106.6C130.07 106.399 129.493 106.244 129.282 105.94C129.008 105.563 128.487 105.669 128.177 105.249C127.596 104.48 126.522 104.007 125.714 103.347C124.739 102.554 123.558 101.966 122.627 101.11C121.867 100.41 120.849 99.9178 120.109 99.1812C119.674 98.783 119.205 98.412 118.705 98.0713C118.068 97.6055 117.511 97.0472 116.914 96.5551C116.449 96.1851 115.936 95.8349 115.51 95.4551C115.009 95.0058 114.448 94.5995 113.967 94.1337C113.091 93.298 112.001 92.677 111.007 91.9668C110.428 91.5334 109.79 91.1586 109.105 90.8503C109.062 90.3911 109.097 89.9485 109.129 89.5059Z" fill="#0A152E"/>
<path d="M43.2706 156.787L43.0637 156.807C42.837 156.225 42.5824 155.651 42.3954 155.059C42.2084 154.468 42.1328 153.784 41.7509 153.196C41.5927 152.852 41.5368 152.482 41.5878 152.116C41.5878 150.897 41.19 149.711 41.3292 148.466C41.4327 147.475 41.2974 146.421 41.4168 145.417C41.556 144.258 41.743 143.105 41.8822 141.939C42.0135 140.842 42.1288 139.742 42.3238 138.652C42.5784 137.218 42.5983 135.768 42.825 134.335C43.0374 132.98 43.1411 131.615 43.1353 130.249C43.1353 129.066 42.8489 127.887 42.8171 126.701C42.8171 126.07 42.4551 126.04 41.8941 126.07C40.1557 126.106 38.4133 126.106 36.6748 126.143C36.1974 126.143 36.0661 125.984 36.0661 125.624C36.0661 123.774 36.0343 121.928 36.0264 120.078C36.0264 118.723 36.0264 117.366 36.0264 116.008C36.0264 115.377 36.1059 115.311 36.8777 115.314L43.9667 115.334C44.8141 115.334 45.6614 115.334 46.5088 115.334C46.7634 115.334 47.0299 115.334 47.197 115.1C47.5086 114.722 47.7928 114.329 48.0483 113.924C48.299 113.438 48.7246 113.042 48.9553 112.533C49.0667 112.295 49.5202 112.067 49.751 111.777C50.5254 110.841 51.3104 109.907 52.106 108.975C52.7028 108.259 53.3313 107.568 54.0036 106.894C54.6759 106.22 55.2249 105.497 55.8813 104.85C56.5377 104.202 57.2697 103.489 57.93 102.805C58.6461 102.068 59.6009 101.484 60.1101 100.615C60.3846 100.146 60.9574 99.8782 61.3632 99.4917C62.3736 98.5272 63.6228 97.7608 64.6133 96.7632C65.0456 96.3637 65.5195 95.9967 66.0296 95.6665C67.2747 94.8011 68.5199 93.9323 69.8008 93.0999C70.9545 92.3533 72.2394 91.7488 73.3056 90.9428C74.0415 90.3879 74.9247 90.0377 75.6925 89.5687C76.4827 89.1334 77.3096 88.7459 78.1669 88.4092C79.229 87.9468 80.4026 87.6891 81.4409 87.2167C82.2672 86.8952 83.1192 86.6215 83.9909 86.3975C84.9419 86.1294 85.9188 85.9294 86.9108 85.7996C88.3589 85.5684 89.8069 85.3207 91.2868 85.2083C91.7213 85.1623 92.1611 85.1623 92.5956 85.2083C92.6851 85.599 92.6851 86.0002 92.5956 86.3909C92.0308 86.2884 91.4459 86.2884 90.881 86.3909C90.2863 86.517 89.6792 86.5988 89.067 86.6354C87.6843 86.7605 86.3206 87.0029 84.9974 87.3588C82.6894 87.9592 80.465 88.762 78.3618 89.7537C76.7944 90.5101 75.1793 91.1774 73.7034 92.0659C73.0311 92.4756 72.2832 92.8059 71.6348 93.2419C70.9863 93.6779 70.4413 94.1107 69.765 94.5071C69.2519 94.8196 68.7605 95.156 68.2931 95.5146C67.4696 96.1356 66.7019 96.7896 65.8704 97.4107C65.4983 97.6596 65.1619 97.9434 64.8679 98.2563C64.5873 98.6107 64.2439 98.9281 63.8495 99.1977C62.6561 99.9311 61.8605 100.929 60.7983 101.761C60.0464 102.362 59.4338 103.082 58.7416 103.71C58.0363 104.316 57.3861 104.964 56.7963 105.649C56.0643 106.574 55.1453 107.383 54.4094 108.315C53.8882 108.975 53.1841 109.553 52.7147 110.241C52.4879 110.571 52.0742 110.713 51.9191 111.066C51.623 111.657 51.2206 112.208 50.7256 112.698C50.2642 113.21 49.93 113.808 49.4049 114.267C49.0548 114.565 49.1025 115.024 48.5695 115.361H51.39C52.1498 115.361 52.3606 115.519 52.3606 116.167C52.3606 116.497 52.3248 116.827 52.3169 117.158C52.2572 119.949 52.1936 122.74 52.1458 125.535C52.1458 125.865 52.0106 125.987 51.5889 125.991C49.3532 125.991 47.1174 126.03 44.8817 126.057C44.0861 126.057 44.0423 126.096 44.1577 126.787C44.3805 128.131 44.6629 129.462 44.4481 130.843C44.3128 131.715 44.3845 132.607 44.3248 133.486C44.2412 134.767 44.0543 136.033 43.8872 137.304C43.8838 137.741 43.8319 138.177 43.732 138.606C43.3342 139.64 43.4973 140.713 43.2507 141.754C43.0518 142.596 43.1353 143.491 42.9881 144.34C42.7653 145.645 42.8529 146.95 42.7455 148.255C42.6818 149.001 42.9205 149.764 42.8847 150.514C42.8764 151.79 43.1045 153.059 43.561 154.277C43.6843 154.653 43.561 155.135 44.0304 155.443C44.0587 155.475 44.0767 155.513 44.0827 155.553C44.0886 155.593 44.0824 155.633 44.0645 155.67C44.0467 155.707 44.0178 155.74 43.9805 155.766C43.9432 155.791 43.8988 155.808 43.8514 155.816C43.1632 155.941 43.0518 156.311 43.2706 156.787Z" fill="#0A152E"/>
<path d="M92.5635 86.4041C92.653 86.0134 92.653 85.6122 92.5635 85.2216C92.5635 84.2306 92.5834 83.2693 92.5834 82.2915C92.5834 81.8225 92.5515 81.3534 92.5834 80.8844C92.6033 80.2237 92.8419 80.0255 93.6813 80.0883C94.8728 80.1577 96.0678 80.1765 97.2617 80.1444H99.7878C101.554 80.1444 103.32 80.1444 105.087 80.1741C106.256 80.1741 107.422 80.1741 108.591 80.2072C109.033 80.2072 109.455 80.7985 109.435 81.2973C109.363 83.0579 109.3 84.8153 109.232 86.5825C109.192 87.5625 109.155 88.5425 109.121 89.5224C109.089 89.9651 109.053 90.4077 109.021 90.8437C108.902 91.2104 108.508 90.9759 108.273 91.0816L105.739 91.0981C104.685 91.0981 103.631 91.2467 102.557 91.141C102.895 89.8759 102.815 88.69 101.761 87.6329C101.244 87.1176 100.723 86.6089 100.17 86.1366C100.011 86.0411 99.8925 85.9073 99.8291 85.7536C99.7658 85.5999 99.7611 85.4337 99.8156 85.2777C99.924 85.0071 99.907 84.7127 99.7679 84.4519C99.0797 84.8285 98.4432 85.1786 97.8027 85.5189C96.0881 86.4339 94.4451 87.4414 92.6629 88.2639C92.6922 87.6427 92.659 87.0207 92.5635 86.4041Z" fill="#0B33C2"/>
<path d="M99.7958 80.1347H97.2697C97.2259 79.6392 96.7883 79.3056 96.4939 78.9356C95.8137 78.09 95.0976 77.284 94.5049 76.3756C94.1707 75.8669 93.9241 75.2591 93.2836 74.8726C92.7425 74.5423 92.5556 73.9741 92.1936 73.5183C91.5173 72.666 90.833 71.8204 90.117 70.988C89.4009 70.1555 88.8798 69.1646 88.1279 68.3222C87.1334 67.1925 86.3139 65.967 85.3432 64.8207C84.1498 63.4036 83.0955 61.9139 81.8663 60.5265C81.0707 59.6247 80.4899 58.6238 79.6664 57.7286C78.8429 56.8334 78.2303 55.7698 77.4665 54.8118C77.013 54.2404 76.3725 53.7482 75.9747 53.0875C75.6157 52.4574 75.1712 51.8634 74.6499 51.317C74.1805 50.8281 73.8026 50.2962 73.365 49.7941C73.2854 49.7017 73.1661 49.7017 73.0149 49.705C72.4001 49.735 71.7879 49.618 71.2507 49.3681C70.7134 49.1181 70.2737 48.7455 69.9836 48.2945C69.6585 47.8701 69.4912 47.3756 69.5025 46.8727C69.5138 46.3698 69.7033 45.8809 70.0472 45.4669C71.0179 44.2579 72.0602 43.8152 73.6276 44.0696C74.1436 44.1562 74.6267 44.3454 75.0355 44.621C75.4443 44.8965 75.7665 45.2502 75.9747 45.6518C76.0954 45.8918 76.1299 46.1557 76.0741 46.4116C75.9389 47.2077 76.2094 48.1029 75.3859 48.7569C75.1711 48.9254 75.2467 49.0608 75.3859 49.2293C76.2611 50.1872 77.013 51.2112 77.8126 52.2187C78.4371 52.9917 79.0816 53.7878 79.6544 54.607C80.1676 55.3403 80.7842 56.0505 81.3372 56.7773C82.0453 57.7055 82.8767 58.5643 83.5411 59.5124C84.3725 60.695 85.4029 61.7685 86.2582 62.9313C87.2129 64.2295 88.2075 65.5177 89.2418 66.7664C90.4869 68.2694 91.7241 69.779 92.9176 71.3051C93.8166 72.4645 94.7078 73.6339 95.6148 74.79C96.665 76.1113 97.58 77.545 98.8251 78.7771C99.1956 79.2053 99.5204 79.6596 99.7958 80.1347Z" fill="#EE4A81"/>
<path d="M172.027 148.763C172.482 148.864 172.956 148.894 173.423 148.849C174.478 148.879 175.536 148.902 176.606 148.938C176.92 148.938 177.083 148.919 177.055 148.588C177.012 148.119 177.055 147.644 177.055 147.171C177.055 146.798 177.195 146.719 177.6 146.89C179.144 147.551 180.699 148.175 182.247 148.82C183.043 149.15 183.818 149.48 184.598 149.811C185.131 150.042 185.163 150.313 184.642 150.56C182.684 151.505 180.707 152.427 178.802 153.444C178.507 153.603 178.209 153.758 177.907 153.9C177.409 154.131 177.111 154.006 177.075 153.537C177.035 152.919 177.028 152.301 177.028 151.68C177.028 151.416 176.968 151.294 176.59 151.314C175.536 151.366 174.482 151.383 173.431 151.413H172.122C170.404 151.442 168.689 151.479 166.975 151.495C166.613 151.495 166.541 151.614 166.577 151.892C166.633 152.404 166.645 152.916 166.664 153.424C166.684 153.933 166.247 154.194 165.702 153.953C163.394 152.932 161.155 151.809 158.915 150.696C158.322 150.402 158.382 149.913 159.011 149.662C159.464 149.48 159.925 149.312 160.387 149.14C162.229 148.456 164.075 147.779 165.917 147.092C166.275 146.957 166.382 147.026 166.378 147.343C166.374 147.66 166.438 148.04 166.426 148.387C166.426 148.681 166.517 148.81 166.895 148.8C167.599 148.8 168.303 148.826 169.004 148.8C169.998 148.783 171.017 148.962 172.027 148.763Z" fill="#0B33C2"/>
<path d="M114.961 75.6025C114.742 75.6025 114.674 75.4406 114.563 75.3481C114.452 75.2556 114.503 75.1665 114.615 75.0475C115.184 74.443 115.967 74.0301 116.604 73.4884C117.706 72.5569 118.967 71.7641 120.045 70.8094C120.22 70.6542 120.383 70.3404 120.765 70.6178C121.043 70.8193 121.123 70.9482 120.765 71.2025C119.015 72.5238 117.3 73.8716 115.566 75.2061C115.373 75.3473 115.171 75.4796 114.961 75.6025Z" fill="#0A152E"/>
<path d="M108.755 67.146C108.755 68.6876 108.755 70.2192 108.755 71.7409C108.755 71.8631 108.695 71.9886 108.699 72.1108C108.699 72.3817 108.477 72.3355 108.302 72.3421C108.127 72.3487 108.027 72.2793 107.991 72.0877C107.86 71.361 108.023 70.6376 107.991 69.9142C107.908 68.6358 108.095 67.3541 107.991 66.0758C107.991 65.8478 107.808 65.4977 108.389 65.5241C108.707 65.5241 108.787 65.5902 108.787 65.8544C108.731 66.2872 108.755 66.7166 108.755 67.146Z" fill="#0A152E"/>
<path d="M124.627 83.9895C124.401 84.191 124.536 84.627 123.951 84.4123C122.085 83.7516 120.2 83.091 118.322 82.4303C118.166 82.3685 118.016 82.2967 117.873 82.2156C117.622 82.0868 117.777 81.9381 117.837 81.7862C117.896 81.6342 118.036 81.6375 118.235 81.6706C118.975 81.7961 119.587 82.1628 120.283 82.3742C121.568 82.764 122.802 83.2694 124.075 83.6955C124.267 83.7824 124.452 83.8806 124.627 83.9895Z" fill="#0A152E"/>
<path d="M102.581 91.1311C102.295 92.8752 102 94.6161 101.722 96.3602C101.324 98.7749 100.97 101.193 100.588 103.608C100.485 104.268 100.377 104.906 100.25 105.55C100.123 106.194 99.5536 106.587 99.307 107.152C99.1685 107.4 99.0118 107.64 98.8376 107.872C98.7977 107.96 98.7337 108.04 98.6507 108.104C98.5676 108.168 98.4678 108.215 98.359 108.242C98.2502 108.268 98.1355 108.273 98.0239 108.257C97.9122 108.24 97.8067 108.202 97.7157 108.146C95.7267 107.32 93.7376 106.495 91.7724 105.646C91.4183 105.494 91.2473 105.523 91.0444 105.817C89.3656 108.242 87.6669 110.657 85.9842 113.085C85.4471 113.861 84.9658 114.667 84.3929 115.43C84.2457 115.632 83.8598 115.615 83.5973 115.522C82.1294 115.02 80.5858 114.683 79.1537 114.115C77.8216 113.546 76.6554 112.742 75.7365 111.76C75.6529 111.677 75.5972 111.555 75.4898 111.509C74.6942 111.142 74.8573 110.911 75.279 110.343C75.9195 109.474 76.6156 108.635 77.2203 107.743C77.7773 106.924 78.4138 106.148 79.0224 105.338C79.8181 104.255 80.6694 103.214 81.5167 102.131C80.5461 101.827 79.5714 101.536 78.919 100.81C78.4908 100.348 78.1563 99.8314 77.9284 99.2803C77.7295 98.7617 77.4789 98.3653 76.7748 98.2398C76.4726 98.148 76.1864 98.0236 75.9234 97.8698C76.8901 97.2091 77.9603 96.6971 78.9389 96.086C81.0791 94.7383 83.3148 93.5161 85.5426 92.2608C87.5317 91.1278 89.5526 89.9948 91.6093 88.9344C91.9772 88.7404 92.3234 88.5193 92.6436 88.2738C94.4258 87.4513 96.0688 86.4438 97.7834 85.5288C98.4238 85.1984 99.0603 84.8384 99.7486 84.4618C99.8876 84.7225 99.9047 85.017 99.7963 85.2876C99.7417 85.4436 99.7464 85.6098 99.8098 85.7635C99.8732 85.9172 99.9921 86.0509 100.15 86.1465C100.719 86.6188 101.24 87.1374 101.742 87.6428C102.84 88.6801 102.919 89.8659 102.581 91.1311ZM99.1558 85.2909L78.2109 97.6584C78.289 97.7017 78.37 97.7415 78.4535 97.7773C80.2278 98.438 81.9901 99.0986 83.7763 99.7295C84.3332 99.9244 84.4526 100.06 84.0866 100.509C83.2313 101.56 82.4396 102.643 81.64 103.726C80.8404 104.81 79.9812 105.89 79.2014 106.997C78.366 108.189 77.4152 109.329 76.5202 110.495C76.3849 110.67 76.2894 110.762 76.6952 110.885C77.821 111.215 78.9071 111.668 79.9971 112.084C80.2318 112.176 80.3352 112.123 80.4665 111.962C81.1627 111.093 81.8827 110.234 82.5789 109.365C84.0481 107.54 85.5068 105.711 86.9548 103.878C87.0702 103.74 87.2691 103.631 87.1816 103.423V103.439C87.2776 103.414 87.3656 103.371 87.4392 103.314C87.5128 103.257 87.5702 103.187 87.6073 103.109C87.9693 102.333 88.8007 101.999 89.5486 102.247C91.3865 102.868 93.2297 103.477 95.0782 104.073C95.8739 104.321 96.0608 104.215 96.1046 103.542C96.1762 102.366 96.5024 101.229 96.6615 100.053C96.932 98.1274 97.3696 96.2182 97.7078 94.299C98.1878 91.6101 98.6533 88.919 99.1041 86.2257C99.1518 85.9218 99.3826 85.608 99.132 85.2975L99.1757 85.3735L99.2394 85.3339L99.1558 85.2909ZM75.7802 111.241C76.178 110.776 76.178 110.776 75.5773 110.68L75.7802 111.241Z" fill="#0A152E"/>
<path d="M108.281 91.0717C108.261 91.5044 108.679 91.7719 108.926 92.0626C109.721 92.9578 110.322 93.9521 111.062 94.877C111.858 95.868 112.653 96.8887 113.421 97.8995C114.07 98.6791 114.671 99.4862 115.219 100.318C115.549 100.856 116.082 101.279 116.369 101.801C116.715 102.445 117.224 103 117.606 103.617C117.755 103.925 118.02 104.183 118.362 104.354C118.76 104.519 118.477 104.86 118.696 105.12C119.348 105.9 119.89 106.749 120.586 107.499C120.908 107.829 120.944 108.282 121.242 108.645C122.089 109.669 122.885 110.723 123.661 111.786C124.238 112.573 124.735 113.398 125.3 114.195C125.768 114.906 126.29 115.593 126.863 116.249C127.261 116.682 127.38 117.204 127.786 117.643C128.693 118.634 129.254 119.79 130.093 120.818C130.348 121.128 130.555 121.264 131.044 121.148C132.273 120.841 133.252 121.326 134.076 122.007C135.496 123.179 134.903 125.971 132.723 126.651C131.132 127.137 128.956 126.238 128.51 124.976C128.188 124.196 128.247 123.343 128.673 122.598C128.725 122.529 128.749 122.448 128.743 122.367C128.736 122.286 128.7 122.208 128.637 122.146C128.033 121.531 127.778 120.755 127.225 120.114C126 118.704 125.157 117.101 123.927 115.684C123.279 114.941 122.965 113.986 122.28 113.237C121.651 112.542 121.104 111.798 120.645 111.017C120.148 110.174 119.4 109.481 118.871 108.668C118.342 107.856 117.709 107.139 117.34 106.28C117.176 105.9 116.735 105.712 116.488 105.362C116.115 104.897 115.781 104.411 115.49 103.908C115.092 103.122 114.328 102.56 113.875 101.801C113.506 101.055 112.956 100.38 112.259 99.8187C112.216 99.7857 112.24 99.6833 112.232 99.6106C112.224 99.538 112.232 99.5346 112.232 99.4983L112.156 99.5545C111.659 98.8938 111.146 98.2332 110.676 97.5428C110.012 96.5782 109.32 95.6236 108.607 94.6887C107.895 93.7539 107.243 92.8885 106.507 92.0197C106.248 91.7158 105.994 91.4086 105.739 91.1014L108.281 91.0717Z" fill="#EE4A81"/>
<path d="M43.9863 155.809C44.4438 155.865 44.6586 155.988 44.7263 156.216C44.766 156.344 44.5632 156.404 44.4557 156.391C44.0818 156.351 44.2449 156.041 43.9863 155.809Z" fill="#0A152E"/>
<path d="M87.1973 103.429L87.2171 103.436L87.2052 103.449L87.1973 103.429Z" fill="#0A152E"/>
</g>
<defs>
<clipPath id="clip0">
<rect width="150" height="143.296" fill="white" transform="translate(35 44)"/>
</clipPath>
</defs>
</svg>
